<svg width="20" height="20" viewBox="0 0 20 20" fill="none" xmlns="http://www.w3.org/2000/svg">
<path d="M13.5906 3.65336C13.0981 3.65336 12.8517 3.65336 12.6274 3.57012C12.5962 3.55856 12.5656 3.54584 12.5353 3.53198C12.3178 3.43221 12.1437 3.25807 11.7954 2.90981C10.9938 2.10822 10.5931 1.70743 10.0999 1.67047C10.0337 1.66551 9.96699 1.66551 9.90074 1.67047C9.40758 1.70743 9.00674 2.10822 8.2052 2.9098C7.85693 3.25807 7.6828 3.43221 7.4653 3.53198C7.43509 3.54584 7.40438 3.55856 7.37322 3.57012C7.14887 3.65336 6.9026 3.65336 6.41008 3.65336H6.31923C5.06264 3.65336 4.43435 3.65336 4.04398 4.04374C3.65361 4.43411 3.65361 5.0624 3.65361 6.31899V6.40984C3.65361 6.90236 3.65361 7.14862 3.57037 7.37297C3.5588 7.40413 3.54608 7.43485 3.53223 7.46506C3.43245 7.68256 3.25832 7.85669 2.91004 8.20496C2.10847 9.0065 1.70768 9.40733 1.67072 9.9005C1.66575 9.96675 1.66575 10.0334 1.67072 10.0997C1.70768 10.5928 2.10847 10.9936 2.91004 11.7952C3.25832 12.1435 3.43245 12.3176 3.53223 12.5351C3.54608 12.5653 3.5588 12.596 3.57037 12.6272C3.65361 12.8515 3.65361 13.0978 3.65361 13.5903V13.6812C3.65361 14.9377 3.65361 15.5661 4.04398 15.9564C4.43435 16.3468 5.06264 16.3468 6.31923 16.3468H6.41008C6.9026 16.3468 7.14887 16.3468 7.37322 16.43C7.40438 16.4416 7.43509 16.4543 7.4653 16.4682C7.6828 16.568 7.85693 16.7421 8.2052 17.0903C9.00674 17.8919 9.40758 18.2927 9.90074 18.3297C9.96699 18.3347 10.0337 18.3347 10.0999 18.3297C10.5931 18.2927 10.9938 17.8919 11.7954 17.0903C12.1437 16.7421 12.3178 16.568 12.5353 16.4682C12.5656 16.4543 12.5962 16.4416 12.6274 16.43C12.8517 16.3468 13.0981 16.3468 13.5906 16.3468H13.6814C14.938 16.3468 15.5663 16.3468 15.9567 15.9564C16.3471 15.5661 16.3471 14.9377 16.3471 13.6812V13.5903C16.3471 13.0978 16.3471 12.8515 16.4302 12.6272C16.4418 12.596 16.4546 12.5653 16.4684 12.5351C16.5682 12.3176 16.7423 12.1435 17.0906 11.7952C17.8922 10.9936 18.293 10.5928 18.3299 10.0997C18.3349 10.0334 18.3349 9.96675 18.3299 9.9005C18.293 9.40733 17.8922 9.0065 17.0906 8.20496C16.7423 7.85669 16.5682 7.68256 16.4684 7.46506C16.4546 7.43485 16.4418 7.40413 16.4302 7.37297C16.3471 7.14862 16.3471 6.90236 16.3471 6.40984V6.31899C16.3471 5.0624 16.3471 4.43411 15.9567 4.04374C15.5663 3.65336 14.938 3.65336 13.6814 3.65336H13.5906Z" stroke="#CCD5DC" stroke-width="1.25"/>
<path d="M7.08301 13.7501C7.6652 12.7437 8.75334 12.0665 9.99967 12.0665C11.246 12.0665 12.3342 12.7437 12.9163 13.7501M11.6663 8.33341C11.6663 9.25391 10.9202 10.0001 9.99967 10.0001C9.07926 10.0001 8.33301 9.25391 8.33301 8.33341C8.33301 7.41294 9.07926 6.66675 9.99967 6.66675C10.9202 6.66675 11.6663 7.41294 11.6663 8.33341Z" stroke="#CCD5DC" stroke-width="1.25" stroke-linecap="round"/>
</svg>
