<svg width="16" height="16" viewBox="0 0 16 16" fill="none" xmlns="http://www.w3.org/2000/svg">
<path d="M1.33203 5.71263C1.33203 4.91518 1.65362 4.42647 2.31912 4.05611L5.05861 2.53155C6.4941 1.73269 7.21183 1.33325 7.9987 1.33325C8.78556 1.33325 9.5033 1.73269 10.9388 2.53155L13.6783 4.05611C14.3438 4.42647 14.6654 4.91519 14.6654 5.71263C14.6654 5.92887 14.6654 6.03699 14.6418 6.12588C14.5177 6.59289 14.0945 6.66659 13.6858 6.66659H2.31155C1.90288 6.66659 1.47971 6.59288 1.35564 6.12588C1.33203 6.03699 1.33203 5.92887 1.33203 5.71263Z" stroke="white"/>
<path d="M7.99609 4.66675H8.00209" stroke="white" stroke-width="1.33333" stroke-linecap="round" stroke-linejoin="round"/>
<path d="M2.66797 6.66675V12.3334M5.33464 6.66675V12.3334" stroke="white"/>
<path d="M10.668 6.66675V12.3334M13.3346 6.66675V12.3334" stroke="white"/>
<path d="M12.6654 12.3333H3.33203C2.22746 12.3333 1.33203 13.2287 1.33203 14.3333C1.33203 14.5173 1.48127 14.6666 1.66536 14.6666H14.332C14.5161 14.6666 14.6654 14.5173 14.6654 14.3333C14.6654 13.2287 13.77 12.3333 12.6654 12.3333Z" stroke="white"/>
</svg>
