<svg width="16" height="16" viewBox="0 0 16 16" fill="none" xmlns="http://www.w3.org/2000/svg">
<path d="M7.9987 5.00008C7.9987 6.28875 6.95403 7.33341 5.66536 7.33341C4.3767 7.33341 3.33203 6.28875 3.33203 5.00008C3.33203 3.71141 4.3767 2.66675 5.66536 2.66675C6.95403 2.66675 7.9987 3.71141 7.9987 5.00008Z" stroke="white"/>
<path d="M9 7.33341C10.2887 7.33341 11.3333 6.28875 11.3333 5.00008C11.3333 3.71141 10.2887 2.66675 9 2.66675" stroke="white" stroke-linecap="round"/>
<path d="M8.76063 13.3333H2.57012C1.88634 13.3333 1.33203 12.8216 1.33203 12.1904C1.33203 10.6125 2.71782 9.33325 4.42727 9.33325H6.90343C7.60023 9.33325 8.2433 9.54579 8.76063 9.90445" stroke="white" stroke-linecap="round" stroke-linejoin="round"/>
<path d="M12.668 9.33325V13.3333M14.668 11.3333H10.668" stroke="white" stroke-linecap="round"/>
</svg>
