<svg width="20" height="20" viewBox="0 0 20 20" fill="none" xmlns="http://www.w3.org/2000/svg">
<path d="M3.75 2.91675V12.0834C3.75 15.1778 5.98752 17.5001 9.16667 17.5001" stroke="#D0D3DA" stroke-width="1.25735" stroke-linecap="round" stroke-linejoin="round"/>
<path d="M16.2507 17.0833V7.91667C16.2507 4.82227 14.0132 2.5 10.834 2.5" stroke="#D0D3DA" stroke-width="1.25735" stroke-linecap="round" stroke-linejoin="round"/>
<path d="M18.3327 15C18.3327 15 16.7983 17.0833 16.2493 17.0833C15.7003 17.0833 14.166 15 14.166 15" stroke="#D0D3DA" stroke-width="1.25735" stroke-linecap="round" stroke-linejoin="round"/>
<path d="M5.83268 4.58332C5.83268 4.58332 4.29833 2.50001 3.74933 2.5C3.20033 2.49999 1.66602 4.58333 1.66602 4.58333" stroke="#D0D3DA" stroke-width="1.25735" stroke-linecap="round" stroke-linejoin="round"/>
<path d="M8.81594 7.3801L8.64817 7.0026C8.53847 6.75578 8.48362 6.63237 8.40159 6.53792C8.29878 6.41956 8.16478 6.33248 8.01487 6.2866C7.89524 6.25 7.76019 6.25 7.49009 6.25C7.09496 6.25 6.8974 6.25 6.73155 6.32595C6.53619 6.41543 6.35977 6.6097 6.28947 6.81275C6.22979 6.98512 6.24689 7.16226 6.28107 7.51654C6.64496 11.2876 8.71242 13.355 12.4834 13.7189C12.8377 13.7531 13.0149 13.7702 13.1872 13.7105C13.3903 13.6402 13.5846 13.4638 13.6741 13.2685C13.75 13.1026 13.75 12.905 13.75 12.5099C13.75 12.2398 13.75 12.1047 13.7134 11.9851C13.6675 11.8352 13.5804 11.7012 13.4621 11.5984C13.3676 11.5164 13.2442 11.4615 12.9974 11.3518L12.6199 11.184C12.3526 11.0652 12.2189 11.0059 12.0831 10.993C11.9531 10.9806 11.8221 10.9988 11.7004 11.0462C11.5733 11.0957 11.461 11.1893 11.2362 11.3766C11.0126 11.563 10.9007 11.6562 10.7641 11.7061C10.6429 11.7504 10.4827 11.7668 10.3551 11.748C10.2112 11.7267 10.101 11.6679 9.88052 11.55C9.19469 11.1835 8.81647 10.8053 8.44994 10.1195C8.33214 9.89904 8.27324 9.78879 8.25203 9.64487C8.23322 9.51725 8.24962 9.35708 8.29387 9.23596C8.3438 9.09928 8.437 8.98744 8.62341 8.76375C8.81067 8.53903 8.90431 8.42667 8.95381 8.29955C9.00119 8.17789 9.01942 8.04683 9.00706 7.91687C8.99414 7.78105 8.93474 7.6474 8.81594 7.3801Z" stroke="#D0D3DA" stroke-width="0.628676" stroke-linecap="round"/>
</svg>
