<svg width="16" height="16" viewBox="0 0 16 16" fill="none" xmlns="http://www.w3.org/2000/svg">
<path d="M8.66536 1.36475C8.4461 1.34392 8.2237 1.33325 7.9987 1.33325C4.31722 1.33325 1.33203 4.18897 1.33203 7.71105C1.33203 9.40332 2.02092 10.9409 3.14462 12.082C3.39203 12.3333 3.55722 12.6765 3.49055 13.0298C3.38053 13.6074 3.13119 14.1462 2.7661 14.5953C3.72666 14.7739 4.72546 14.6131 5.58202 14.1575C5.88482 13.9965 6.03621 13.916 6.14305 13.8997C6.24988 13.8833 6.40292 13.9121 6.70896 13.9696C7.13416 14.0494 7.56583 14.0895 7.9987 14.0889C11.2187 14.0889 14.0422 11.9043 14.6654 8.99992" stroke="white" stroke-linecap="round" stroke-linejoin="round"/>
<path d="M7.9957 8H8.0017M5.33203 8H5.33801" stroke="white" stroke-width="1.33333" stroke-linecap="round" stroke-linejoin="round"/>
<path d="M13.4543 2.52711C13.4543 3.18647 12.9311 3.72097 12.2858 3.72097C11.6404 3.72097 11.1172 3.18647 11.1172 2.52711C11.1172 1.86776 11.6404 1.33325 12.2858 1.33325C12.9311 1.33325 13.4543 1.86776 13.4543 2.52711Z" stroke="white" stroke-linecap="round"/>
<path d="M9.97431 6.26412C10.5927 5.29149 11.5747 4.92698 12.2852 4.92774C12.9958 4.92849 13.949 5.29149 14.5674 6.26412C14.6074 6.32701 14.6184 6.40444 14.5823 6.46981C14.4376 6.73177 13.9886 7.2517 13.6643 7.28697C13.2917 7.32744 12.3169 7.3331 12.286 7.3333C12.255 7.33317 11.2501 7.32744 10.8773 7.28697C10.553 7.2517 10.104 6.73177 9.95938 6.46981C9.92331 6.40444 9.93431 6.32701 9.97431 6.26412Z" stroke="white" stroke-linecap="round"/>
</svg>
