<svg width="16" height="16" viewBox="0 0 16 16" fill="none" xmlns="http://www.w3.org/2000/svg">
<path d="M12 1.33325V2.66659M4 1.33325V2.66659" stroke="white" stroke-linecap="round" stroke-linejoin="round"/>
<path d="M1.66797 8.16213C1.66797 5.25729 1.66797 3.80485 2.50272 2.90243C3.33746 2 4.68096 2 7.36797 2H8.63464C11.3216 2 12.6652 2 13.4999 2.90243C14.3346 3.80485 14.3346 5.25729 14.3346 8.16213V8.50453C14.3346 11.4094 14.3346 12.8618 13.4999 13.7643C12.6652 14.6667 11.3216 14.6667 8.63464 14.6667H7.36797C4.68096 14.6667 3.33746 14.6667 2.50272 13.7643C1.66797 12.8618 1.66797 11.4094 1.66797 8.50453V8.16213Z" stroke="white" stroke-linecap="round" stroke-linejoin="round"/>
<path d="M2 5.33325H14" stroke="white" stroke-linecap="round" stroke-linejoin="round"/>
</svg>
