<svg width="20" height="20" viewBox="0 0 20 20" fill="none" xmlns="http://www.w3.org/2000/svg">
<path d="M16.875 18.75H3.125C2.62772 18.75 2.15081 18.5525 1.79917 18.2008C1.44754 17.8492 1.25 17.3723 1.25 16.875V8.125C1.25 7.62772 1.44754 7.15081 1.79917 6.79917C2.15081 6.44754 2.62772 6.25 3.125 6.25H16.875C17.3723 6.25 17.8492 6.44754 18.2008 6.79917C18.5525 7.15081 18.75 7.62772 18.75 8.125V16.875C18.75 17.3723 18.5525 17.8492 18.2008 18.2008C17.8492 18.5525 17.3723 18.75 16.875 18.75ZM3.125 7.5C2.95924 7.5 2.80027 7.56585 2.68306 7.68306C2.56585 7.80027 2.5 7.95924 2.5 8.125V16.875C2.5 17.0408 2.56585 17.1997 2.68306 17.3169C2.80027 17.4342 2.95924 17.5 3.125 17.5H16.875C17.0408 17.5 17.1997 17.4342 17.3169 17.3169C17.4342 17.1997 17.5 17.0408 17.5 16.875V8.125C17.5 7.95924 17.4342 7.80027 17.3169 7.68306C17.1997 7.56585 17.0408 7.5 16.875 7.5H3.125ZM16.25 1.875C16.25 1.70924 16.1842 1.55027 16.0669 1.43306C15.9497 1.31585 15.7908 1.25 15.625 1.25H4.375C4.20924 1.25 4.05027 1.31585 3.93306 1.43306C3.81585 1.55027 3.75 1.70924 3.75 1.875C3.75 2.04076 3.81585 2.19973 3.93306 2.31694C4.05027 2.43415 4.20924 2.5 4.375 2.5H15.625C15.7908 2.5 15.9497 2.43415 16.0669 2.31694C16.1842 2.19973 16.25 2.04076 16.25 1.875ZM17.5 4.375C17.5 4.20924 17.4342 4.05027 17.3169 3.93306C17.1997 3.81585 17.0408 3.75 16.875 3.75H3.125C2.95924 3.75 2.80027 3.81585 2.68306 3.93306C2.56585 4.05027 2.5 4.20924 2.5 4.375C2.5 4.54076 2.56585 4.69973 2.68306 4.81694C2.80027 4.93415 2.95924 5 3.125 5H16.875C17.0408 5 17.1997 4.93415 17.3169 4.81694C17.4342 4.69973 17.5 4.54076 17.5 4.375ZM7.5 15.625C7.38298 15.6254 7.26821 15.5929 7.16875 15.5312C7.07868 15.475 7.00444 15.3966 6.95304 15.3037C6.90165 15.2107 6.87479 15.1062 6.875 15V10C6.87532 9.89346 6.90287 9.78877 6.95504 9.69588C7.0072 9.60298 7.08225 9.52496 7.17305 9.46923C7.26385 9.41349 7.36739 9.3819 7.47384 9.37744C7.58029 9.37298 7.68611 9.39581 7.78125 9.44375L12.7812 11.9438C12.8836 11.9962 12.9695 12.0759 13.0295 12.174C13.0895 12.2722 13.1213 12.385 13.1213 12.5C13.1213 12.615 13.0895 12.7278 13.0295 12.826C12.9695 12.9241 12.8836 13.0038 12.7812 13.0562L7.78125 15.5562C7.69417 15.6009 7.59784 15.6244 7.5 15.625ZM8.125 11.0125V13.9875L11.1 12.5L8.125 11.0125Z" fill="white" fill-opacity="0.8"/>
</svg>
