<svg width="20" height="20" viewBox="0 0 20 20" fill="none" xmlns="http://www.w3.org/2000/svg">
<path d="M5.83398 6.98268H9.58398M9.58398 6.98268H12.084M9.58398 6.98268V5.83325M14.1673 6.98268H12.084M12.084 6.98268C11.6444 8.55458 10.7239 10.0405 9.67323 11.3464M9.67323 11.3464C8.80323 12.4278 7.84403 13.3856 6.9947 14.1666M9.67323 11.3464C9.13757 10.7183 8.38757 9.70209 8.17327 9.24234M9.67323 11.3464L11.2804 13.0172" stroke="#D0D3DA" stroke-width="1.25" stroke-linecap="round" stroke-linejoin="round"/>
<path d="M2.08398 9.99992C2.08398 6.26797 2.08398 4.40199 3.24335 3.24262C4.40273 2.08325 6.2687 2.08325 10.0007 2.08325C13.7326 2.08325 15.5986 2.08325 16.758 3.24262C17.9173 4.40199 17.9173 6.26797 17.9173 9.99992C17.9173 13.7318 17.9173 15.5978 16.758 16.7573C15.5986 17.9166 13.7326 17.9166 10.0007 17.9166C6.2687 17.9166 4.40273 17.9166 3.24335 16.7573C2.08398 15.5978 2.08398 13.7318 2.08398 9.99992Z" stroke="#D0D3DA" stroke-width="1.25"/>
</svg>
