<svg width="20" height="20" viewBox="0 0 20 20" fill="none" xmlns="http://www.w3.org/2000/svg">
<path d="M13.7497 16.5475V17.4999M13.7497 16.5475C12.9062 16.5475 12.1631 16.1267 11.7272 15.4876M13.7497 16.5475C14.5932 16.5475 15.3363 16.1267 15.7722 15.4876M11.7272 15.4876L10.8333 16.0713M11.7272 15.4876C11.4694 15.1096 11.3191 14.6553 11.3191 14.1666C11.3191 13.6779 11.4693 13.2237 11.7271 12.8458M15.7722 15.4876L16.666 16.0713M15.7722 15.4876C16.0299 15.1096 16.1803 14.6553 16.1803 14.1666C16.1803 13.6779 16.03 13.2237 15.7723 12.8458M13.7497 11.7857C14.5933 11.7857 15.3364 12.2066 15.7723 12.8458M13.7497 11.7857C12.9061 11.7857 12.1629 12.2066 11.7271 12.8458M13.7497 11.7857V10.8333M15.7723 12.8458L16.6663 12.2618M11.7271 12.8458L10.833 12.2618" stroke="white" stroke-opacity="0.8" stroke-width="1.5" stroke-linecap="round"/>
<path d="M3.33301 2.5H16.6663" stroke="white" stroke-opacity="0.8" stroke-width="1.5" stroke-linecap="round"/>
<path d="M3.33301 7.5H16.6663" stroke="white" stroke-opacity="0.8" stroke-width="1.5" stroke-linecap="round"/>
<path d="M3.33301 12.5H7.49967" stroke="white" stroke-opacity="0.8" stroke-width="1.5" stroke-linecap="round"/>
</svg>
