<svg xmlns="http://www.w3.org/2000/svg" width="172.494" height="50" viewBox="0 0 172.494 50">
  <g id="Group_29" data-name="Group 29" transform="translate(-185.491 -92)">
    
    <g id="Group_28" data-name="Group 28" transform="translate(185.491 92)">
      <path id="Path_53" class="" data-name="Path 53" d="M-690.677,186.058a18.1,18.1,0,0,1-.857-3.536c-.25-2.715-1.822-5.608-4.465-8.287-1.322-1.357-3.036-3.108-3.786-3.893a13.66,13.66,0,0,0-6.894-3.5,29.05,29.05,0,0,1-3.679-1.036,13.91,13.91,0,0,0-8.608-.071,15.686,15.686,0,0,1-3.5.857,13.674,13.674,0,0,0-8.18,4.322c-1.179,1.179-2.893,2.893-3.822,3.786a12.664,12.664,0,0,0-3.643,6.679,21.341,21.341,0,0,1-1.036,3.572,14.26,14.26,0,0,0-.286,8.858,16.793,16.793,0,0,1,.857,3.393c.536,3.679,1.822,6.215,4.215,8.251a26.3,26.3,0,0,1,2.857,3.036,12.207,12.207,0,0,0,7.072,4.5,29.334,29.334,0,0,1,4.322,1.25,14.368,14.368,0,0,0,9.394.107,10.12,10.12,0,0,1,2.822-.714,15.086,15.086,0,0,0,5.751-1.965,20.844,20.844,0,0,0,2.857-2.536A36.937,36.937,0,0,1-696,206.061a13.535,13.535,0,0,0,4.072-7.251,25.429,25.429,0,0,1,1.072-3.643A13.981,13.981,0,0,0-690.677,186.058Zm-5.679-2.322a10.685,10.685,0,0,0,.571-4.465c-.071-1.393.036-2.393.214-2.322a9.181,9.181,0,0,1,1.429,2.25,8.342,8.342,0,0,1,1.072,4.965,14.885,14.885,0,0,1-.393,3.822l-.429.929-1.572-1.572-1.572-1.572Zm1.357,6.93c0,.429-2.608,2.965-3.036,2.929a7.686,7.686,0,0,1-1.75-1.607l-1.357-1.536,1.536-1.572c1.429-1.429,1.643-1.536,2.322-1.107A8.03,8.03,0,0,1-695,190.666Zm-11.359-2.5,1.286-1.572c1.143-1.357,1.429-1.536,2.393-1.357,1.429.286,3.036.929,3.036,1.214a6.492,6.492,0,0,1-1.893,2.143l-.964.857-1.929-.643Zm1.179,2.25c-.322.536-3.25.75-4.251.321l-.964-.464.822-.464C-708.537,189.2-704.751,189.7-705.179,190.416Zm1.036-8.358c-.5,1.429-.607,1.5-2.357,1.679a10.153,10.153,0,0,1-1.929.143,13.2,13.2,0,0,1,.321-1.965c.393-1.822.464-1.893,2.036-2.393a13.4,13.4,0,0,1,2.25-.5C-703.108,178.986-703.143,179.271-704.144,182.058Zm-2.822,3.393c.572,0,.464.214-.679,1.214-1.286,1.143-3.072,1.679-3.072.964,0-.464,1.143-1.429,2.143-1.822A5.984,5.984,0,0,1-706.965,185.451Zm-4.679.107c-.822.572-.857.572-.857-.393a4.069,4.069,0,0,1,1.286-2.393c.679-.75,1.357-1.286,1.464-1.143C-709.359,182.022-710.752,185.022-711.645,185.558Zm.714-5.215c-1.072.822-1.643,1.036-1.715.714-1.143-3.536-1.072-3.822.929-5.429l1.179-.893.393.786a8.829,8.829,0,0,1,.607,2.215C-709.323,179.093-709.394,179.2-710.93,180.343Zm-2.179-5.5-1.536,1.357-1.679-1.643-1.643-1.643,1.536-1.429a6.517,6.517,0,0,1,1.965-1.429c.536,0,3.143,2.715,3,3.108A12.324,12.324,0,0,1-713.109,174.842Zm-1.679,10.609-.464-.822c-.536-1-.572-1.536-.071-3.25.179-.75.5-1.25.643-1.143.572.321.786,3.25.357,4.251Zm-.536,14.431c-.536-.321-.75-3.358-.321-4.322l.429-.893.5.929C-714.145,196.7-714.645,200.31-715.324,199.881Zm-1.643-23.753,1.357,1.393-.643,1.965-.679,1.965-1.429-1.179c-1.25-1.036-1.464-1.393-1.357-2.429a8.762,8.762,0,0,1,.464-2.179c.214-.536.5-.964.643-.964A8.18,8.18,0,0,1-716.967,176.128Zm-1.143,9.358a7.287,7.287,0,0,1-1.536-3.536c.036-1,2.5,1.965,2.5,3C-717.145,185.808-717.4,185.951-718.11,185.487Zm.607,9.5c0,1-2.215,4.036-2.643,3.608-.357-.357.643-2.858,1.5-3.715C-717.538,193.773-717.5,193.773-717.5,194.988Zm-1.965-8.287c.536.822.536.857-.429.857-1,0-3.679-1.857-3.679-2.536C-723.575,184.165-720.253,185.522-719.467,186.7Zm-.143,3.143-.821.464c-1,.536-1.536.572-3.286.071-1.572-.429-1.357-.929.5-1.143.679-.071,1.357-.179,1.5-.179a2.814,2.814,0,0,1,1.179.357Zm-6.287-10.073c-.214-1.036-.143-1.143.572-1.143A8.3,8.3,0,0,1-723,179.2c1.429.536,1.5.643,1.679,2.393a7.789,7.789,0,0,1,.071,1.965,12.3,12.3,0,0,1-1.893-.321C-725.075,182.772-725.4,182.379-725.9,179.772Zm5.072-4.108c-.393,1.143-.786,2.107-.822,2.179A28.488,28.488,0,0,1-726,176.664c-.214-.179.679-3.179,1.072-3.679.5-.572,2.179-.536,3.643.071l1.214.5Zm-3.893,10.287,1.179,1.607-.822.321c-2.572.964-3.072.893-4.643-.679-1.714-1.679-1.572-1.929,1.25-2.465.821-.179,1.572-.321,1.679-.357A8.114,8.114,0,0,1-724.718,185.951Zm-4.251-2.536a15.924,15.924,0,0,1-2.286.5,10.669,10.669,0,0,1-.893-3.536c0-.893.214-1.072,1.715-1.536,2.286-.714,2.715-.607,2.965.857.107.679.321,1.679.464,2.179C-726.754,182.736-726.861,182.808-728.968,183.415Zm-3,3.108a6.975,6.975,0,0,1,1.75,1.607l1.393,1.572-1.643,1.607-1.607,1.607-1.036-.857a7.738,7.738,0,0,1-1.536-1.786c-.464-.893-.429-1,.893-2.357C-732.969,187.13-732.183,186.487-731.969,186.522Zm2.893,5.644a6.062,6.062,0,0,1,1.75-1.393,11.182,11.182,0,0,1,2,.643l1.679.607L-725,193.595l-1.357,1.572-1.822-.464a4.6,4.6,0,0,1-2.036-.786C-730.362,193.738-729.826,192.952-729.076,192.166Zm2.679,7.5c.536-2.357,1.179-3.108,2.715-3.286.75-.071,1.572-.143,1.857-.179.321-.071.393.179.25.857-.143.536-.321,1.393-.464,1.929-.214,1.107-1.143,1.643-3.322,2l-1.357.214Zm2.608-4.715c-.107-.071.5-.75,1.322-1.465a4.567,4.567,0,0,1,2.536-1.286c1,0,1,0,.429.857C-720.039,193.881-723.4,195.381-723.789,194.952Zm4.608,4.894c.821-.607,1.607-1,1.715-.893a8.746,8.746,0,0,1,.643,1.714c.5,1.786.25,2.429-1.465,3.858l-1.143.964-.393-.857a7.721,7.721,0,0,1-.643-2.25C-720.646,201.024-720.574,200.882-719.181,199.846Zm2.143,5.608a17.937,17.937,0,0,1,1.607-1.465,20.079,20.079,0,0,1,1.715,1.572l1.572,1.572-.857,1.036a7.734,7.734,0,0,1-1.786,1.536c-.893.464-1,.429-2.357-.893a7.09,7.09,0,0,1-1.429-1.679A7.7,7.7,0,0,1-717.038,205.454Zm4.036-1.393c-1.393-1.393-1.393-1.536-.536-4.036l.464-1.322,1.536,1.322c1.393,1.143,1.536,1.393,1.322,2.5-.286,1.643-.786,2.893-1.179,2.893A5.881,5.881,0,0,1-713,204.061Zm.143-8.858c0-1.107.464-1.107,1.393.071.643.822,1.607,3.358,1.357,3.572C-710.537,199.274-712.859,196.2-712.859,195.2Zm2.357-1.786c-.571-.822-.571-.857.393-.857s3.965,2.357,3.536,2.786C-706.965,195.7-709.966,194.274-710.5,193.416Zm1.357,10.966c.643-1.893.857-2.179,1.464-2,.393.143,1.393.429,2.25.643,1.464.357,1.536.429,1.286,1.464a10.944,10.944,0,0,1-.714,2.25c-.429,1.072-.572,1.143-1.643.964a16.8,16.8,0,0,1-2.286-.679l-1.143-.464Zm2.107-3.465c-1.357-.5-1.536-.679-1.536-1.679a8.261,8.261,0,0,0-.25-2c-.179-.714-.107-.822.393-.643a11.178,11.178,0,0,0,2,.464c1.5.25,1.893.857,2.357,3.5C-703.822,202.1-703.751,202.1-707.037,200.917Zm2-6.465c-1.357-1.929-1.357-1.965.214-2.465,2.143-.643,2.286-.607,3.858.964l1.464,1.464-.857.464a8.969,8.969,0,0,1-2.322.679C-704.036,195.774-704.144,195.7-705.037,194.452Zm3.679,2.322c2.679-.786,2.643-.786,3.072.75.893,2.965.5,3.572-2.822,4.143l-1.286.25-.214-1.572c-.107-.822-.321-1.857-.429-2.286C-703.251,197.417-703.036,197.238-701.358,196.774Zm3.965-15.145a12.948,12.948,0,0,1-.643,2.215l-.464,1.107-2.215-.714c-1.929-.643-2.179-.822-1.965-1.464.143-.429.429-1.429.607-2.25.357-1.393.5-1.5,1.322-1.322a13.763,13.763,0,0,1,2.25.75C-697.285,180.45-697.214,180.593-697.393,181.629Zm-4.929-11.394c2.608,1.75,4.822,5.144,4.822,7.43v.857l-2.107-.572-2.107-.536-.214-1.679a15.078,15.078,0,0,0-2.5-5.787C-705.322,168.627-704.644,168.7-702.322,170.234Zm-1.429,4.536c.75,2.572.714,2.679-.964,2.929a15.546,15.546,0,0,0-2.286.429c-.643.179-.786-.071-1.357-2.036a15.926,15.926,0,0,1-.5-2.286,6.5,6.5,0,0,1,1.357-.464,9.067,9.067,0,0,1,2.215-.393C-704.429,172.913-704.251,173.092-703.751,174.771Zm-10.609-8.215a12.463,12.463,0,0,1,7.5,3.143c1.286,1.25,1.429,1.786.536,1.786a10.837,10.837,0,0,0-2.036.536c-1.357.464-1.393.464-2.322-.643a11.782,11.782,0,0,0-4.394-3.572,4.587,4.587,0,0,1-1.714-1.107C-716.788,166.52-715.681,166.484-714.359,166.555ZM-724,168.449a13.77,13.77,0,0,1,6.93.107l.929.393-1.572,1.572-1.572,1.572-2.036-.679a12.28,12.28,0,0,0-4.5-.572,5.529,5.529,0,0,1-2.393-.143C-728.218,170.342-725.825,169.02-724,168.449Zm-11.43,9.93A13.282,13.282,0,0,1-730,173.306a8.545,8.545,0,0,1,2.572-.75h.964l-.5,1.464a9.726,9.726,0,0,0-.536,2.072c0,.429-.572.679-2.179,1a13.7,13.7,0,0,0-4.215,1.679,8.765,8.765,0,0,1-2.107,1.107A5.053,5.053,0,0,1-735.434,178.378Zm-2.786,13.466c-.536,0-.429-3.215.214-5.394a12.029,12.029,0,0,1,3.072-5.036c.857-.857,1.357-.822,1.393.143a7.6,7.6,0,0,0,.464,2.072c.429,1.214.429,1.25-1,2.429-1.464,1.214-3.786,4.465-3.786,5.322C-737.862,191.63-738.005,191.845-738.22,191.845Zm4.751,3.858a17.514,17.514,0,0,0-.786,4.536l-.214,3.215-.964-1.643a11.671,11.671,0,0,1-1.036-9.68l.357-.929,1.607,1.572,1.607,1.607Zm1.143,1.679a7.55,7.55,0,0,1,.714-1.965c.107,0,1.143.286,2.357.607,1.679.464,2.072.714,1.929,1.143a15.085,15.085,0,0,0-.571,2.25c-.214.964-.5,1.714-.643,1.714a14.408,14.408,0,0,1-4.143-1.429A5.19,5.19,0,0,1-732.326,197.381Zm6.894,13.716c-.607.214-4.072-2.429-5.072-3.822a10.917,10.917,0,0,1-2-4.858c0-.822.036-.822,1.357-.357a10.983,10.983,0,0,0,2.036.5c.607,0,.786.393,1.143,2.179a13.7,13.7,0,0,0,1.679,4.215C-725.611,210.061-725.218,211.026-725.432,211.1Zm.75-3.893c-.929,0-1.072-.179-1.572-1.965-.679-2.215-.536-2.679.822-2.715a4.842,4.842,0,0,0,1.679-.321c1.286-.536,1.5-.393,2.107,1.822a15.9,15.9,0,0,1,.5,2.286A10.671,10.671,0,0,1-724.682,207.2Zm4.643,5.394c-1.786-.822-4.251-2.929-4.251-3.572,0-.214.357-.393.822-.429a7.673,7.673,0,0,0,2.036-.464c1.214-.464,1.25-.429,2.25.893s4.608,3.893,5.5,3.893a.439.439,0,0,1,.464.393C-713.216,214.026-718.181,213.49-720.039,212.6Zm16.788-2.107a15.641,15.641,0,0,1-3.322,1.393c-1.822.464-5.394.286-6.572-.357-.679-.357-.643-.464.75-1.929.822-.893,1.536-1.607,1.536-1.643.036,0,.679.25,1.429.572a18.827,18.827,0,0,0,4.608.786l3.215.214Zm4.858-4.572c-1.572,1.072-4.751,2.215-5.072,1.857a5.645,5.645,0,0,1,.429-1.643,9.805,9.805,0,0,0,.536-2.179c0-.5.25-.679,1.072-.679a14.9,14.9,0,0,0,6.072-2.286c.679-.464,1.322-.679,1.393-.5C-693.714,201.2-696.571,204.7-698.393,205.918Zm5.822-10.823c-.893,1.857-2.786,4.251-3.393,4.251-.179,0-.536-.929-.857-2.107l-.536-2.072,1.25-.857c1.25-.857,3.965-4.679,3.965-5.572a.439.439,0,0,1,.393-.464C-691,188.273-691.57,192.952-692.571,195.1Z" transform="translate(740.009 -165.086)" fill="#fff"/>
    </g>
  </g>
</svg>
