<svg id="Group_28" data-name="Group 28" xmlns="http://www.w3.org/2000/svg" width="78.913" height="78.9" viewBox="0 0 78.913 78.9">
  <path id="Path_53" data-name="Path 53" d="M-662.164,198.18a28.556,28.556,0,0,1-1.353-5.58c-.395-4.284-2.875-8.849-7.046-13.077-2.086-2.142-4.791-4.9-5.975-6.144a21.556,21.556,0,0,0-10.878-5.524,45.837,45.837,0,0,1-5.806-1.635c-3.946-1.465-9.977-1.522-13.584-.113a24.753,24.753,0,0,1-5.524,1.353,21.578,21.578,0,0,0-12.908,6.82c-1.86,1.86-4.566,4.566-6.031,5.975a19.982,19.982,0,0,0-5.749,10.54,33.693,33.693,0,0,1-1.635,5.636c-1.635,4.115-1.8,10.428-.451,13.979a26.5,26.5,0,0,1,1.353,5.355c.845,5.806,2.875,9.807,6.651,13.02a41.49,41.49,0,0,1,4.509,4.791,19.262,19.262,0,0,0,11.16,7.1,46.292,46.292,0,0,1,6.82,1.973c4.509,1.691,10.709,1.8,14.824.169a15.969,15.969,0,0,1,4.453-1.127c2.029,0,6.595-1.578,9.075-3.1a32.886,32.886,0,0,0,4.509-4,58.286,58.286,0,0,1,5.186-4.847,21.359,21.359,0,0,0,6.426-11.442,40.127,40.127,0,0,1,1.691-5.749A22.061,22.061,0,0,0-662.164,198.18Zm-8.962-3.664a16.86,16.86,0,0,0,.9-7.046c-.113-2.2.056-3.776.338-3.664a14.486,14.486,0,0,1,2.255,3.551c1.465,2.875,1.691,3.889,1.691,7.835a23.488,23.488,0,0,1-.62,6.031l-.676,1.465-2.48-2.48-2.48-2.48Zm2.142,10.935c0,.676-4.115,4.678-4.791,4.622a12.126,12.126,0,0,1-2.762-2.536l-2.142-2.424,2.424-2.48c2.255-2.255,2.593-2.424,3.664-1.747C-671.408,201.675-668.984,204.718-668.984,205.451Zm-17.924-3.946,2.029-2.48c1.8-2.142,2.255-2.424,3.776-2.142,2.255.451,4.791,1.465,4.791,1.916-.056.507-1.184,1.8-2.987,3.382l-1.522,1.353-3.044-1.015Zm1.86,3.551c-.507.845-5.129,1.184-6.707.507l-1.522-.733,1.3-.733C-690.346,203.14-684.372,203.929-685.048,205.057Zm1.635-13.189c-.789,2.255-.958,2.367-3.72,2.649a16.021,16.021,0,0,1-3.044.225,20.821,20.821,0,0,1,.507-3.1c.62-2.875.733-2.987,3.213-3.776a21.132,21.132,0,0,1,3.551-.789C-681.779,187.02-681.835,187.471-683.414,191.867Zm-4.453,5.355c.9,0,.733.338-1.071,1.916-2.029,1.8-4.847,2.649-4.847,1.522,0-.733,1.8-2.255,3.382-2.875A9.443,9.443,0,0,1-687.866,197.222Zm-7.384.169c-1.3.9-1.353.9-1.353-.62a6.421,6.421,0,0,1,2.029-3.776c1.071-1.184,2.142-2.029,2.311-1.8C-691.643,191.811-693.841,196.545-695.25,197.391Zm1.127-8.229c-1.691,1.3-2.593,1.635-2.706,1.127-1.8-5.58-1.691-6.031,1.466-8.567l1.86-1.409.62,1.24a13.934,13.934,0,0,1,.958,3.495C-691.586,187.189-691.7,187.358-694.123,189.162Zm-3.438-8.68-2.424,2.142-2.649-2.593-2.593-2.593,2.424-2.255a10.283,10.283,0,0,1,3.1-2.255c.845,0,4.96,4.284,4.735,4.9A19.457,19.457,0,0,1-697.561,180.481Zm-2.649,16.74-.733-1.3c-.845-1.578-.9-2.424-.113-5.129.282-1.184.789-1.973,1.015-1.8.9.507,1.24,5.129.564,6.707Zm-.846,22.771c-.845-.507-1.184-5.3-.507-6.82l.676-1.409.789,1.465C-699.2,214.977-699.985,220.67-701.056,219.993Zm-2.593-37.483,2.142,2.2-1.015,3.1-1.071,3.1-2.255-1.86c-1.973-1.635-2.311-2.2-2.142-3.833a13.827,13.827,0,0,1,.733-3.438c.338-.845.789-1.522,1.015-1.522A12.908,12.908,0,0,1-703.649,182.511Zm-1.8,14.768c-.845-.564-2.424-4.227-2.424-5.58.056-1.578,3.946,3.1,3.946,4.735C-703.93,197.785-704.325,198.011-705.452,197.278Zm.958,14.993c0,1.578-3.495,6.369-4.171,5.693-.564-.564,1.015-4.509,2.367-5.862C-704.55,210.355-704.494,210.355-704.494,212.271Zm-3.1-13.077c.845,1.3.845,1.353-.676,1.353-1.578,0-5.806-2.931-5.806-4C-714.076,195.193-708.834,197.335-707.594,199.195Zm-.225,4.96-1.3.733c-1.578.845-2.424.9-5.186.113-2.48-.676-2.142-1.465.789-1.8,1.071-.113,2.142-.282,2.367-.282a4.44,4.44,0,0,1,1.86.564Zm-9.92-15.895c-.338-1.635-.225-1.8.9-1.8a13.1,13.1,0,0,1,3.664.9c2.255.845,2.367,1.015,2.649,3.776a12.288,12.288,0,0,1,.113,3.1,19.412,19.412,0,0,1-2.987-.507C-716.443,192.994-716.951,192.374-717.74,188.26Zm8-6.482c-.62,1.8-1.24,3.326-1.3,3.438a44.951,44.951,0,0,1-6.877-1.86c-.338-.282,1.071-5.016,1.691-5.806.789-.9,3.438-.845,5.749.113l1.916.789Zm-6.144,16.233,1.86,2.536-1.3.507c-4.058,1.522-4.847,1.409-7.327-1.071-2.706-2.649-2.48-3.044,1.973-3.889,1.3-.282,2.48-.507,2.649-.564A12.8,12.8,0,0,1-715.88,198.011Zm-6.707-4a25.127,25.127,0,0,1-3.607.789,16.837,16.837,0,0,1-1.409-5.58c0-1.409.338-1.691,2.706-2.424,3.607-1.127,4.284-.958,4.678,1.353.169,1.071.507,2.649.733,3.438C-719.093,192.938-719.262,193.051-722.587,194.009Zm-4.735,4.9a11.009,11.009,0,0,1,2.762,2.536l2.2,2.48-2.593,2.536L-727.491,209l-1.635-1.353a12.2,12.2,0,0,1-2.424-2.818c-.733-1.409-.676-1.578,1.409-3.72C-728.9,199.871-727.66,198.856-727.322,198.913Zm4.566,8.906a9.566,9.566,0,0,1,2.762-2.2,17.647,17.647,0,0,1,3.156,1.015l2.649.958-2.142,2.48-2.142,2.48-2.875-.733c-1.578-.338-3.044-.9-3.213-1.24C-724.785,210.3-723.94,209.058-722.756,207.818Zm4.227,11.837c.846-3.72,1.86-4.9,4.284-5.186,1.184-.113,2.48-.225,2.931-.282.507-.113.62.282.395,1.353-.225.845-.507,2.2-.733,3.044-.338,1.747-1.8,2.593-5.242,3.156l-2.142.338Zm4.115-7.44c-.169-.113.789-1.184,2.085-2.311a7.207,7.207,0,0,1,4-2.029c1.578,0,1.578,0,.676,1.353C-708.5,210.524-713.794,212.891-714.414,212.215Zm7.271,7.722c1.3-.958,2.536-1.578,2.706-1.409a13.805,13.805,0,0,1,1.015,2.706c.789,2.818.395,3.833-2.311,6.087l-1.8,1.522-.62-1.353a12.188,12.188,0,0,1-1.015-3.551C-709.454,221.8-709.341,221.571-707.143,219.937Zm3.382,8.849a28.306,28.306,0,0,1,2.536-2.311,31.668,31.668,0,0,1,2.706,2.48l2.48,2.48-1.353,1.635a12.2,12.2,0,0,1-2.818,2.424c-1.409.733-1.578.676-3.72-1.409a11.187,11.187,0,0,1-2.255-2.649A12.14,12.14,0,0,1-703.761,228.786Zm6.369-2.2c-2.2-2.2-2.2-2.424-.845-6.369l.733-2.086,2.424,2.086c2.2,1.8,2.424,2.2,2.086,3.946-.451,2.593-1.24,4.566-1.86,4.566A9.28,9.28,0,0,1-697.392,226.588Zm.225-13.979c0-1.747.733-1.747,2.2.113,1.015,1.3,2.536,5.3,2.142,5.636C-693.5,219.035-697.167,214.188-697.167,212.609Zm3.72-2.818c-.9-1.3-.9-1.353.62-1.353s6.256,3.72,5.58,4.4C-687.866,213.4-692.6,211.144-693.446,209.791Zm2.142,17.3c1.015-2.987,1.353-3.438,2.311-3.156.62.225,2.2.676,3.551,1.015,2.311.564,2.424.676,2.029,2.311a17.271,17.271,0,0,1-1.127,3.551c-.676,1.691-.9,1.8-2.593,1.522a26.527,26.527,0,0,1-3.607-1.071l-1.8-.733Zm3.325-5.467c-2.142-.789-2.424-1.071-2.424-2.649a13.039,13.039,0,0,0-.395-3.156c-.282-1.127-.169-1.3.62-1.015a17.639,17.639,0,0,0,3.156.733c2.367.395,2.987,1.353,3.72,5.524C-682.906,223.488-682.794,223.488-687.979,221.628Zm3.156-10.2c-2.142-3.044-2.142-3.1.338-3.889,3.382-1.015,3.607-.958,6.087,1.522l2.311,2.311-1.353.733a14.153,14.153,0,0,1-3.664,1.071C-683.244,213.511-683.414,213.4-684.823,211.426Zm5.806,3.664c4.227-1.24,4.171-1.24,4.847,1.184,1.409,4.678.789,5.637-4.453,6.538l-2.029.395-.338-2.48c-.169-1.3-.507-2.931-.676-3.607C-682,216.1-681.666,215.822-679.017,215.089Zm6.257-23.9a20.423,20.423,0,0,1-1.015,3.495l-.733,1.747L-678,195.305c-3.044-1.015-3.438-1.3-3.1-2.311.225-.676.676-2.255.958-3.551.564-2.2.789-2.367,2.086-2.085a21.717,21.717,0,0,1,3.551,1.184C-672.591,189.331-672.479,189.556-672.761,191.191Zm-7.778-17.98c4.115,2.762,7.609,8.117,7.609,11.724v1.353l-3.326-.9-3.326-.845-.338-2.649a23.794,23.794,0,0,0-3.945-9.131C-685.274,170.674-684.2,170.787-680.539,173.21Zm-2.255,7.158c1.184,4.058,1.127,4.227-1.522,4.622a24.529,24.529,0,0,0-3.607.676c-1.015.282-1.24-.113-2.142-3.213a25.117,25.117,0,0,1-.789-3.607,10.252,10.252,0,0,1,2.142-.733,14.307,14.307,0,0,1,3.495-.62C-683.864,177.438-683.583,177.72-682.794,180.369Zm-16.74-12.964a19.667,19.667,0,0,1,11.837,4.96c2.029,1.973,2.255,2.818.845,2.818a17.1,17.1,0,0,0-3.213.845c-2.142.733-2.2.733-3.664-1.015a18.591,18.591,0,0,0-6.933-5.636,7.239,7.239,0,0,1-2.706-1.747C-703.367,167.348-701.619,167.292-699.534,167.4Zm-15.219,2.987a21.729,21.729,0,0,1,10.935.169l1.465.62-2.48,2.48-2.48,2.48-3.213-1.071a19.379,19.379,0,0,0-7.1-.9c-2.086.113-3.776,0-3.776-.225C-721.4,173.379-717.627,171.294-714.752,170.392Zm-18.037,15.669a20.959,20.959,0,0,1,8.568-8,13.484,13.484,0,0,1,4.058-1.184h1.522l-.789,2.311a15.349,15.349,0,0,0-.845,3.269c0,.676-.9,1.071-3.438,1.578a21.617,21.617,0,0,0-6.651,2.649,13.832,13.832,0,0,1-3.326,1.747A7.971,7.971,0,0,1-732.789,186.062Zm-4.4,21.25c-.845,0-.676-5.073.338-8.511A18.981,18.981,0,0,1-732,190.853c1.353-1.353,2.142-1.3,2.2.225a11.985,11.985,0,0,0,.733,3.269c.676,1.916.676,1.973-1.578,3.833-2.311,1.916-5.975,7.046-5.975,8.4C-736.622,206.973-736.847,207.311-737.186,207.311Zm7.5,6.087a27.634,27.634,0,0,0-1.24,7.158l-.338,5.073-1.522-2.593a18.417,18.417,0,0,1-1.635-15.275l.564-1.466,2.536,2.48,2.536,2.536Zm1.8,2.649a11.917,11.917,0,0,1,1.127-3.1c.169,0,1.8.451,3.72.958,2.649.733,3.269,1.127,3.044,1.8a23.793,23.793,0,0,0-.9,3.551c-.338,1.522-.789,2.706-1.015,2.706-1.127,0-6.256-1.8-6.538-2.255C-728.675,219.373-728.393,217.739-727.885,216.048Zm10.878,21.644c-.958.338-6.426-3.833-8-6.031-1.8-2.649-3.156-5.918-3.156-7.666,0-1.3.056-1.3,2.142-.564a17.333,17.333,0,0,0,3.213.789c.958,0,1.24.62,1.8,3.438a21.617,21.617,0,0,0,2.649,6.651C-717.289,236.057-716.669,237.579-717.007,237.692Zm1.184-6.144c-1.466,0-1.691-.282-2.48-3.1-1.071-3.495-.846-4.227,1.3-4.284a7.641,7.641,0,0,0,2.649-.507c2.029-.845,2.367-.62,3.326,2.875a25.117,25.117,0,0,1,.789,3.607A16.838,16.838,0,0,1-715.823,231.548Zm7.327,8.511c-2.818-1.3-6.707-4.622-6.707-5.637,0-.338.564-.62,1.3-.676a12.108,12.108,0,0,0,3.213-.733c1.916-.733,1.973-.676,3.551,1.409s7.271,6.144,8.68,6.144a.693.693,0,0,1,.733.62C-697.73,242.314-705.565,241.468-708.5,240.059ZM-682,236.734a24.686,24.686,0,0,1-5.242,2.2c-2.875.733-8.511.451-10.371-.564-1.071-.564-1.015-.733,1.184-3.044,1.3-1.409,2.424-2.536,2.424-2.593.056,0,1.071.395,2.255.9a29.706,29.706,0,0,0,7.271,1.24l5.073.338Zm7.666-7.215c-2.48,1.691-7.5,3.495-8,2.931a8.9,8.9,0,0,1,.676-2.593,15.471,15.471,0,0,0,.845-3.438c0-.789.395-1.071,1.691-1.071,2.142,0,7.046-1.86,9.582-3.607,1.071-.733,2.085-1.071,2.2-.789C-666.955,222.079-671.464,227.6-674.339,229.519Zm9.187-17.079c-1.409,2.931-4.4,6.707-5.355,6.707-.282,0-.845-1.465-1.353-3.326l-.845-3.269,1.973-1.353c1.973-1.353,6.257-7.384,6.257-8.793a.693.693,0,0,1,.62-.733C-662.671,201.675-663.573,209.058-665.151,212.44Z" transform="translate(740.009 -165.086)"/>
</svg>
