<svg width="20" height="20" viewBox="0 0 20 20" fill="none" xmlns="http://www.w3.org/2000/svg">
<path d="M1.66699 5L7.42784 8.26414C9.55166 9.4675 10.449 9.4675 12.5728 8.26414L18.3337 5" stroke="white" stroke-opacity="0.8" stroke-width="1.5" stroke-linejoin="round"/>
<path d="M1.68013 11.2297C1.73461 13.7844 1.76185 15.0617 2.70446 16.0079C3.64706 16.9541 4.95893 16.987 7.58268 17.0529C9.19974 17.0936 10.8009 17.0936 12.418 17.0529C15.0417 16.987 16.3536 16.9541 17.2962 16.0079C18.2388 15.0617 18.2661 13.7844 18.3205 11.2297C18.3381 10.4083 18.3381 9.59183 18.3205 8.77042C18.2661 6.2158 18.2388 4.93849 17.2962 3.9923C16.3536 3.04611 15.0417 3.01315 12.418 2.94722C10.8009 2.90659 9.19974 2.90659 7.58268 2.94722C4.95893 3.01313 3.64706 3.04609 2.70445 3.99229C1.76184 4.93848 1.73461 6.21579 1.68013 8.77042C1.66261 9.59183 1.66262 10.4083 1.68013 11.2297Z" stroke="white" stroke-opacity="0.8" stroke-width="1.5" stroke-linejoin="round"/>
</svg>
