<svg width="16" height="16" viewBox="0 0 16 16" fill="none" xmlns="http://www.w3.org/2000/svg">
<path d="M7.66536 2.00244C7.2909 2.00801 6.91796 2.02299 6.55163 2.04734C3.76296 2.23271 1.54164 4.48554 1.35886 7.31377C1.32309 7.86723 1.32309 8.44043 1.35886 8.9939C1.42543 10.024 1.88098 10.9777 2.4173 11.783C2.7287 12.3468 2.52319 13.0505 2.19884 13.6652C1.96497 14.1084 1.84804 14.33 1.94192 14.49C2.03582 14.6501 2.24554 14.6552 2.66498 14.6654C3.49448 14.6856 4.05382 14.4504 4.49782 14.123C4.74963 13.9374 4.87554 13.8445 4.96232 13.8338C5.0491 13.8232 5.21988 13.8935 5.56137 14.0342C5.8683 14.1606 6.22467 14.2386 6.55163 14.2603C7.5011 14.3234 8.49436 14.3236 9.44576 14.2603C12.2344 14.075 14.4558 11.8221 14.6386 8.9939C14.6743 8.44043 14.6743 7.86723 14.6386 7.31377C14.6012 6.7365 14.479 6.18325 14.2844 5.66662" stroke="white" stroke-linecap="round" stroke-linejoin="round"/>
<path d="M9.33203 3.99992C9.33203 3.99992 9.9987 3.99992 10.6654 5.33325C10.6654 5.33325 12.783 1.99992 14.6654 1.33325" stroke="white" stroke-linecap="round" stroke-linejoin="round"/>
<path d="M7.99568 8.33325H8.00168M10.6594 8.33325H10.6654M5.33203 8.33325H5.33801" stroke="white" stroke-width="1.33333" stroke-linecap="round" stroke-linejoin="round"/>
</svg>
