<svg width="20" height="20" viewBox="0 0 20 20" fill="none" xmlns="http://www.w3.org/2000/svg">
<path d="M4.29864 9.57592C4.23741 10.7392 4.3078 11.9776 3.26844 12.7571C2.7847 13.1199 2.5 13.6892 2.5 14.294C2.5 15.1257 3.1515 15.8334 4 15.8334H16C16.8485 15.8334 17.5 15.1257 17.5 14.294C17.5 13.6892 17.2153 13.1199 16.7316 12.7571C15.6922 11.9776 15.7626 10.7392 15.7013 9.57592C15.5418 6.54361 13.0365 4.16675 10 4.16675C6.96347 4.16675 4.45823 6.5436 4.29864 9.57592Z" stroke="#CCD5DC" stroke-width="1.25" stroke-linecap="round" stroke-linejoin="round"/>
<path d="M8.75 2.60425C8.75 3.29461 9.30967 4.16675 10 4.16675C10.6903 4.16675 11.25 3.29461 11.25 2.60425C11.25 1.91389 10.6903 1.66675 10 1.66675C9.30967 1.66675 8.75 1.91389 8.75 2.60425Z" stroke="#CCD5DC" stroke-width="1.25"/>
<path d="M12.5 15.8333C12.5 17.214 11.3807 18.3333 10 18.3333C8.61925 18.3333 7.5 17.214 7.5 15.8333" stroke="#CCD5DC" stroke-width="1.25" stroke-linecap="round" stroke-linejoin="round"/>
</svg>
