<svg width="27" height="27" viewBox="0 0 27 27" fill="none" xmlns="http://www.w3.org/2000/svg">
<circle cx="13.3782" cy="13.6218" r="13.3782" fill="#091328"/>
<path d="M17.1746 8.37746C17.1746 10.5054 15.4496 12.2304 13.3217 12.2304C11.1938 12.2304 9.46875 10.5054 9.46875 8.37746C9.46875 6.24955 11.1938 4.52454 13.3217 4.52454C15.4496 4.52454 17.1746 6.24955 17.1746 8.37746Z" fill="#476296"/>
<path d="M8.68032 16.0676C7.46899 16.7889 4.29295 18.2616 6.22737 20.1046C7.17232 21.0048 8.22475 21.6487 9.54792 21.6487H17.0981C18.4213 21.6487 19.4738 21.0048 20.4187 20.1046C22.3531 18.2616 19.1771 16.7889 17.9657 16.0676C15.1252 14.3762 11.5209 14.3762 8.68032 16.0676Z" fill="#476296"/>
</svg>
