<svg width="52" height="50" viewBox="0 0 52 50" fill="none" xmlns="http://www.w3.org/2000/svg">
<circle cx="25.5" cy="25" r="25" fill="#091328"/>
<path d="M32.5992 15.2C32.5992 19.1764 29.3757 22.4 25.3992 22.4C21.4228 22.4 18.1992 19.1764 18.1992 15.2C18.1992 11.2235 21.4228 8 25.3992 8C29.3757 8 32.5992 11.2235 32.5992 15.2Z" fill="#476296"/>
<path d="M16.7241 29.5705C14.4605 30.9184 8.52539 33.6705 12.1403 37.1145C13.9061 38.7968 15.8728 40 18.3454 40H32.4545C34.9272 40 36.8939 38.7968 38.6596 37.1145C42.2745 33.6705 36.3395 30.9184 34.0758 29.5705C28.7676 26.4098 22.0323 26.4098 16.7241 29.5705Z" fill="#476296"/>
<circle cx="46.5" cy="40" r="4.75" fill="#36CE00" stroke="#F1F4F7" stroke-width="1.5"/>
</svg>
