<svg width="24" height="24" viewBox="0 0 24 24" fill="none" xmlns="http://www.w3.org/2000/svg">
<path d="M11.7267 5.16822C16.501 3.54063 18.8881 2.72684 20.1721 4.01079C21.456 5.29474 20.6422 7.68189 19.0147 12.4562L17.9063 15.7074C16.6564 19.374 16.0314 21.2073 15.0011 21.359C14.7242 21.3998 14.4375 21.3753 14.1634 21.2873C13.1442 20.9601 12.6054 19.0271 11.5278 15.1612C11.2888 14.3037 11.1693 13.8749 10.8971 13.5474C10.8181 13.4524 10.7305 13.3648 10.6355 13.2858C10.308 13.0136 9.87918 12.8941 9.02173 12.6551C5.15579 11.5775 3.22282 11.0387 2.89558 10.0194C2.8076 9.74542 2.78305 9.45871 2.82384 9.18173C2.97556 8.1515 4.80887 7.52652 8.47548 6.27656L11.7267 5.16822Z" stroke="white"/>
</svg>
