<svg width="39" height="38" viewBox="0 0 39 38" fill="none" xmlns="http://www.w3.org/2000/svg">
<circle cx="19.5" cy="19" r="19" fill="#394D71"/>
<path d="M25.3137 16.2512L24.1035 15.2003C23.2317 14.4431 22.8899 14.0358 22.4178 14.1798C21.829 14.3593 22.0228 15.4923 22.0228 15.8747C21.1075 15.8747 20.1559 15.8043 19.2536 15.951C16.2751 16.4353 15.3438 18.5544 15.3438 20.8375C16.1868 20.3207 17.0289 19.7445 18.0421 19.505C19.3069 19.206 20.7194 19.3487 22.0228 19.3487C22.0228 19.7312 21.829 20.8641 22.4178 21.0436C22.9527 21.2068 23.2317 20.7803 24.1035 20.0231L25.3137 18.9722C26.0559 18.3277 26.4271 18.0054 26.4271 17.6117C26.4271 17.2181 26.0559 16.8958 25.3137 16.2512Z" stroke="#C0D7F1" stroke-width="1.03906" stroke-linecap="round" stroke-linejoin="round"/>
<path d="M18.5071 12.7656C15.8331 12.7704 14.4328 12.8359 13.538 13.729C12.5723 14.6928 12.5723 16.2439 12.5723 19.3461C12.5723 22.4484 12.5723 23.9996 13.538 24.9633C14.5037 25.9271 16.058 25.9271 19.1665 25.9271C22.2751 25.9271 23.8294 25.9271 24.7951 24.9633C25.4674 24.2923 25.6717 23.3366 25.7337 21.7708" stroke="#C0D7F1" stroke-width="1.03906" stroke-linecap="round" stroke-linejoin="round"/>
</svg>
