<svg width="52" height="52" viewBox="0 0 52 52" fill="none" xmlns="http://www.w3.org/2000/svg">
<circle cx="26" cy="26" r="26" fill="#DEEAF8"/>
<path d="M22.5 28.5002H29.5M22.5 23.5002H26" stroke="#235D9F" stroke-width="1.5" stroke-linecap="round" stroke-linejoin="round"/>
<path d="M28.1706 34.8903C32.3536 34.6123 35.6856 31.233 35.9598 26.9907C36.0134 26.1605 36.0134 25.3007 35.9598 24.4705C35.6856 20.2281 32.3536 16.8489 28.1706 16.5708C26.7435 16.476 25.2536 16.4762 23.8294 16.5708C19.6464 16.8489 16.3144 20.2281 16.0402 24.4705C15.9866 25.3007 15.9866 26.1605 16.0402 26.9907C16.1401 28.5358 16.8234 29.9664 17.6279 31.1744C18.095 32.0201 17.7867 33.0756 17.3002 33.9976C16.9494 34.6624 16.774 34.9948 16.9148 35.2349C17.0557 35.475 17.3703 35.4827 17.9994 35.498C19.2437 35.5283 20.0827 35.1755 20.7487 34.6844C21.1264 34.4059 21.3153 34.2666 21.4454 34.2506C21.5756 34.2346 21.8318 34.3401 22.344 34.5511C22.8044 34.7407 23.339 34.8577 23.8294 34.8903C25.2536 34.985 26.7435 34.9852 28.1706 34.8903Z" stroke="#235D9F" stroke-width="1.5" stroke-linejoin="round"/>
</svg>
