<svg width="16" height="16" viewBox="0 0 16 16" fill="none" xmlns="http://www.w3.org/2000/svg">
<path d="M4.625 6.66675C4.16438 6.67015 3.88721 6.68428 3.66643 6.74275C2.66162 7.00881 1.97369 7.90935 2.00077 8.92321C2.00862 9.21688 2.12041 9.57981 2.344 10.3057C2.88209 12.0527 3.78642 13.5693 5.8123 13.9332C6.18469 14.0001 6.60374 14.0001 7.4418 14.0001H8.5582C9.39627 14.0001 9.81533 14.0001 10.1877 13.9332C12.2136 13.5693 13.1179 12.0527 13.656 10.3057C13.8796 9.57981 13.9914 9.21688 13.9992 8.92321C14.0263 7.90935 13.3384 7.00881 12.3336 6.74275C12.1128 6.68428 11.8356 6.67015 11.375 6.66675" stroke="white" stroke-linecap="round"/>
<path d="M7.9987 2V9.33333M7.9987 2C8.31096 2 8.5483 2.29207 9.02296 2.8762L9.66536 3.66667M7.9987 2C7.68643 2 7.4491 2.29207 6.97443 2.8762L6.33203 3.66667" stroke="white" stroke-linecap="round" stroke-linejoin="round"/>
</svg>
