<svg xmlns="http://www.w3.org/2000/svg" width="206.992" height="60" viewBox="0 0 206.992 60">
  <g id="Group_14492" data-name="Group 14492" transform="translate(-120.36 -216.54)">
    <g id="Group_31" data-name="Group 31" transform="translate(186.371 227.964)">
      <rect id="Rectangle_243" data-name="Rectangle 243" width="8.573" height="7.715" transform="translate(132.174)" fill="#6fa8dd"/>
      <path id="Path_54" data-name="Path 54" d="M-499.184,362v26.365h-8.788l-.073-9.631-.11-9.594-1.9-.11-1.941-.11V362Z" transform="translate(640.165 -351.608)" fill="#6fa8dd"/>
      <path id="Path_55" data-name="Path 55" d="M-568.747,371.179l-4.651-.11-2.966-5.42-3-5.383h-3.845v10.986H-592V335h8.788v18.712l4.175-.22,2.893-4.87,2.929-4.834h4.541c4.065,0,4.541.073,4.358.586-.11.33-1.721,3.113-3.515,6.189s-3.369,5.859-3.515,6.152c-.11.33,1.282,3.222,3.3,6.921,1.9,3.515,3.589,6.665,3.735,6.994C-564.1,371.216-564.463,371.252-568.747,371.179Z" transform="translate(690.87 -334.495)" fill="#6fa8dd"/>
      <path id="Path_56" data-name="Path 56" d="M-653.536,374.828v11.1h-8.789v-9.631c0-11.681.256-11.1-4.467-10.766a22.177,22.177,0,0,0-4.211.623l-1.208.439v19.335H-681V358.459h7.653l.256,1.318c.146.769.4,1.208.659,1.1a41.857,41.857,0,0,1,6.555-2.417,17.974,17.974,0,0,1,7.617.183,6.452,6.452,0,0,1,4.028,3.662C-653.609,363.622-653.536,364.867-653.536,374.828Z" transform="translate(747.279 -349.166)" fill="#6fa8dd"/>
      <path id="Path_57" data-name="Path 57" d="M-742.281,362.843a7.3,7.3,0,0,0-4.284-4.175,14.448,14.448,0,0,0-4.248-.476c-3.735.073-11.169.513-13.549.806l-2.051.256v6.3l2.49-.256c1.355-.11,4.541-.33,7.141-.439,5.456-.293,6.115-.037,6.115,2.49v1.392H-756.6a49,49,0,0,0-7.434.4,7.533,7.533,0,0,0-4.541,4.541,19.563,19.563,0,0,0-.037,7.58,7.065,7.065,0,0,0,3.845,4.358c3.076,1.428,9.667.659,13.219-1.538,1.428-.879,1.611-.879,1.611,0,0,1.758.22,1.868,4.248,1.868h3.808V375C-741.879,367.859-742.025,363.648-742.281,362.843Zm-8.459,13.842-.11,1.758-2.014.439c-3.332.7-5.749.586-6.591-.256a2.533,2.533,0,0,1-.732-1.465,2.533,2.533,0,0,1,.732-1.465c.659-.659,1.208-.732,4.8-.732h4.028Z" transform="translate(803.032 -349.192)" fill="#6fa8dd"/>
      <path id="Path_58" data-name="Path 58" d="M-826.114,335.37c0,.22-2.966,6.152-6.591,13.183l-6.591,12.78v9.887h-9.155v-9.228l-6.774-13.146c-3.735-7.25-6.775-13.329-6.775-13.512,0-.22,1.794-.366,4.577-.366,4.321,0,4.577.037,5.053.806.293.476,2.234,4.431,4.321,8.788,2.087,4.394,3.882,7.946,3.991,7.983.11,0,1.977-3.772,4.174-8.349s4.174-8.532,4.358-8.788C-835.049,334.821-826.114,334.784-826.114,335.37Z" transform="translate(862 -334.463)" fill="#6fa8dd"/>
    </g>
    <g id="Group_14475" data-name="Group 14475" transform="translate(120.36 216.54)">
      <g id="Group_14473" data-name="Group 14473">
        <path id="Path_53" data-name="Path 53" d="M-680.811,190.253a21.712,21.712,0,0,1-1.029-4.243c-.3-3.258-2.186-6.729-5.358-9.944-1.586-1.629-3.643-3.729-4.544-4.672a16.392,16.392,0,0,0-8.273-4.2,34.855,34.855,0,0,1-4.415-1.243,16.692,16.692,0,0,0-10.33-.086,18.822,18.822,0,0,1-4.2,1.029,16.409,16.409,0,0,0-9.816,5.186c-1.414,1.414-3.472,3.472-4.586,4.544a15.2,15.2,0,0,0-4.372,8.015,25.62,25.62,0,0,1-1.243,4.286,17.111,17.111,0,0,0-.343,10.63,20.162,20.162,0,0,1,1.029,4.072c.643,4.415,2.186,7.458,5.058,9.9a31.547,31.547,0,0,1,3.429,3.643,14.648,14.648,0,0,0,8.487,5.4,35.209,35.209,0,0,1,5.186,1.5,17.242,17.242,0,0,0,11.273.129,12.145,12.145,0,0,1,3.386-.857,18.1,18.1,0,0,0,6.9-2.357,25.013,25.013,0,0,0,3.429-3.043,44.31,44.31,0,0,1,3.943-3.686,16.243,16.243,0,0,0,4.886-8.7,30.525,30.525,0,0,1,1.286-4.372A16.776,16.776,0,0,0-680.811,190.253Zm-6.815-2.786a12.823,12.823,0,0,0,.686-5.358c-.086-1.672.043-2.872.257-2.786a11.013,11.013,0,0,1,1.715,2.7c1.114,2.186,1.286,2.958,1.286,5.958a17.866,17.866,0,0,1-.471,4.586l-.514,1.114-1.886-1.886-1.886-1.886Zm1.629,8.315c0,.514-3.129,3.558-3.643,3.515a9.223,9.223,0,0,1-2.1-1.929l-1.629-1.843,1.843-1.886c1.715-1.715,1.972-1.843,2.786-1.329C-687.841,192.91-686,195.225-686,195.782Zm-13.63-3,1.543-1.886c1.372-1.629,1.715-1.843,2.872-1.629,1.715.343,3.643,1.114,3.643,1.457a7.789,7.789,0,0,1-2.272,2.572L-695,194.325l-2.315-.772Zm1.414,2.7c-.386.643-3.9.9-5.1.386l-1.157-.557.986-.557C-702.243,194.024-697.7,194.625-698.214,195.482Zm1.243-10.03c-.6,1.715-.729,1.8-2.829,2.015a12.185,12.185,0,0,1-2.315.171,15.841,15.841,0,0,1,.386-2.357c.471-2.186.557-2.272,2.443-2.872a16.07,16.07,0,0,1,2.7-.6C-695.727,181.766-695.77,182.109-696.97,185.452Zm-3.386,4.072c.686,0,.557.257-.814,1.457-1.543,1.372-3.686,2.015-3.686,1.157,0-.557,1.372-1.715,2.572-2.186A7.181,7.181,0,0,1-700.357,189.524Zm-5.615.129c-.986.686-1.029.686-1.029-.471a4.883,4.883,0,0,1,1.543-2.872c.814-.9,1.629-1.543,1.757-1.372C-703.228,185.409-704.9,189.01-705.972,189.652Zm.857-6.258c-1.286.986-1.972,1.243-2.057.857-1.372-4.243-1.286-4.586,1.114-6.515l1.414-1.072.471.943a10.6,10.6,0,0,1,.729,2.658C-703.186,181.894-703.271,182.023-705.114,183.394Zm-2.615-6.6-1.843,1.629-2.014-1.972-1.972-1.972,1.843-1.715a7.819,7.819,0,0,1,2.357-1.715c.643,0,3.772,3.258,3.6,3.729A14.793,14.793,0,0,1-707.729,176.794Zm-2.015,12.73-.557-.986c-.643-1.2-.686-1.843-.086-3.9.214-.9.6-1.5.772-1.372.686.386.943,3.9.429,5.1Zm-.643,17.317c-.643-.386-.9-4.029-.386-5.186l.514-1.072.6,1.114C-708.972,203.026-709.572,207.355-710.387,206.841Zm-1.972-28.5,1.629,1.672-.772,2.357-.814,2.357-1.715-1.414c-1.5-1.243-1.757-1.672-1.629-2.915a10.52,10.52,0,0,1,.557-2.615c.257-.643.6-1.157.772-1.157A9.818,9.818,0,0,1-712.358,178.337Zm-1.372,11.23a8.745,8.745,0,0,1-1.843-4.243c.043-1.2,3,2.357,3,3.6C-712.573,189.952-712.873,190.124-713.73,189.567Zm.729,11.4c0,1.2-2.658,4.844-3.172,4.329-.429-.429.772-3.429,1.8-4.458C-713.044,199.511-713,199.511-713,200.968Zm-2.357-9.944c.643.986.643,1.029-.514,1.029-1.2,0-4.415-2.229-4.415-3.043C-720.288,187.981-716.3,189.61-715.359,191.024Zm-.172,3.772-.986.557c-1.2.643-1.843.686-3.943.086-1.886-.514-1.629-1.114.6-1.372.814-.086,1.629-.214,1.8-.214a3.376,3.376,0,0,1,1.414.429Zm-7.544-12.087c-.257-1.243-.171-1.372.686-1.372a9.958,9.958,0,0,1,2.786.686c1.715.643,1.8.772,2.015,2.872a9.343,9.343,0,0,1,.086,2.357,14.758,14.758,0,0,1-2.272-.386C-722.088,186.309-722.474,185.838-723.074,182.709Zm6.087-4.929c-.471,1.372-.943,2.529-.986,2.615a34.183,34.183,0,0,1-5.229-1.414c-.257-.214.814-3.815,1.286-4.415.6-.686,2.615-.643,4.372.086l1.457.6Zm-4.672,12.345,1.414,1.929-.986.386c-3.086,1.157-3.686,1.072-5.572-.814-2.057-2.015-1.886-2.315,1.5-2.958.986-.214,1.886-.386,2.015-.429A9.738,9.738,0,0,1-721.66,190.124Zm-5.1-3.043a19.105,19.105,0,0,1-2.743.6,12.8,12.8,0,0,1-1.072-4.243c0-1.072.257-1.286,2.057-1.843,2.743-.857,3.258-.729,3.558,1.029.129.814.386,2.015.557,2.615C-724.1,186.266-724.231,186.352-726.76,187.081Zm-3.6,3.729a8.372,8.372,0,0,1,2.1,1.929l1.672,1.886-1.972,1.929-1.929,1.929-1.243-1.029a9.281,9.281,0,0,1-1.843-2.143c-.557-1.072-.514-1.2,1.072-2.829C-731.561,191.538-730.618,190.767-730.361,190.81Zm3.472,6.772a7.274,7.274,0,0,1,2.1-1.672,13.418,13.418,0,0,1,2.4.772l2.015.729L-722,199.3l-1.629,1.886-2.186-.557a5.525,5.525,0,0,1-2.443-.943C-728.432,199.468-727.789,198.525-726.889,197.582Zm3.215,9c.643-2.829,1.414-3.729,3.258-3.943.9-.086,1.886-.171,2.229-.214.386-.086.471.214.3,1.029-.171.643-.386,1.672-.557,2.315-.257,1.329-1.372,1.972-3.986,2.4l-1.629.257Zm3.129-5.658c-.129-.086.6-.9,1.586-1.757a5.48,5.48,0,0,1,3.043-1.543c1.2,0,1.2,0,.514,1.029C-716.044,199.64-720.074,201.44-720.545,200.925Zm5.529,5.872c.986-.729,1.929-1.2,2.057-1.072a10.5,10.5,0,0,1,.772,2.057c.6,2.143.3,2.915-1.757,4.629l-1.372,1.157-.471-1.029a9.267,9.267,0,0,1-.771-2.7C-716.773,208.212-716.687,208.041-715.016,206.8Zm2.572,6.73a21.518,21.518,0,0,1,1.929-1.757,24.082,24.082,0,0,1,2.057,1.886l1.886,1.886-1.029,1.243a9.279,9.279,0,0,1-2.143,1.843c-1.072.557-1.2.514-2.829-1.072a8.508,8.508,0,0,1-1.715-2.015A9.232,9.232,0,0,1-712.444,213.527Zm4.844-1.672c-1.672-1.672-1.672-1.843-.643-4.844l.557-1.586,1.843,1.586c1.672,1.372,1.843,1.672,1.586,3-.343,1.972-.943,3.472-1.415,3.472A7.057,7.057,0,0,1-707.6,211.856Zm.171-10.63c0-1.329.557-1.329,1.672.086.772.986,1.929,4.029,1.629,4.286C-704.643,206.112-707.429,202.426-707.429,201.225Zm2.829-2.143c-.686-.986-.686-1.029.471-1.029s4.758,2.829,4.243,3.343C-700.357,201.826-703.957,200.111-704.6,199.082Zm1.629,13.159c.771-2.272,1.029-2.615,1.757-2.4.471.171,1.672.514,2.7.772,1.757.429,1.843.514,1.543,1.757a13.142,13.142,0,0,1-.857,2.7c-.514,1.286-.686,1.372-1.972,1.157a20.178,20.178,0,0,1-2.743-.814l-1.372-.557Zm2.529-4.158c-1.629-.6-1.843-.814-1.843-2.015a9.912,9.912,0,0,0-.3-2.4c-.214-.857-.129-.986.472-.772a13.415,13.415,0,0,0,2.4.557c1.8.3,2.272,1.029,2.829,4.2C-696.585,209.5-696.5,209.5-700.442,208.084Zm2.4-7.758c-1.629-2.315-1.629-2.357.257-2.958,2.572-.772,2.743-.729,4.629,1.157l1.757,1.757-1.029.557a10.763,10.763,0,0,1-2.786.814C-696.842,201.911-696.97,201.826-698.042,200.325Zm4.415,2.786c3.215-.943,3.172-.943,3.686.9,1.072,3.558.6,4.286-3.386,4.972l-1.543.3-.257-1.886c-.129-.986-.386-2.229-.514-2.743C-695.9,203.883-695.642,203.669-693.627,203.111Zm4.758-18.174a15.531,15.531,0,0,1-.772,2.658l-.557,1.329-2.658-.857c-2.315-.772-2.615-.986-2.357-1.757.171-.514.514-1.715.729-2.7.429-1.672.6-1.8,1.586-1.586a16.512,16.512,0,0,1,2.7.9C-688.741,183.523-688.655,183.694-688.869,184.938Zm-5.915-13.673c3.129,2.1,5.786,6.172,5.786,8.916v1.029l-2.529-.686-2.529-.643-.257-2.015a18.1,18.1,0,0,0-3-6.944C-698.385,169.335-697.571,169.421-694.784,171.264Zm-1.715,5.444c.9,3.086.857,3.215-1.157,3.515a18.65,18.65,0,0,0-2.743.514c-.771.214-.943-.086-1.629-2.443a19.108,19.108,0,0,1-.6-2.743,7.8,7.8,0,0,1,1.629-.557,10.881,10.881,0,0,1,2.657-.471C-697.313,174.479-697.1,174.693-696.5,176.708Zm-12.73-9.859a14.956,14.956,0,0,1,9,3.772c1.543,1.5,1.715,2.143.643,2.143a13,13,0,0,0-2.443.643c-1.629.557-1.672.557-2.786-.772a14.137,14.137,0,0,0-5.272-4.286,5.505,5.505,0,0,1-2.057-1.329C-712.144,166.806-710.815,166.764-709.229,166.849Zm-11.573,2.272a16.524,16.524,0,0,1,8.315.129l1.114.471-1.886,1.886-1.886,1.886-2.443-.814a14.737,14.737,0,0,0-5.4-.686c-1.586.086-2.872,0-2.872-.171C-725.86,171.393-722.988,169.807-720.8,169.121Zm-13.716,11.916A15.939,15.939,0,0,1-728,174.95a10.254,10.254,0,0,1,3.086-.9h1.157l-.6,1.757a11.673,11.673,0,0,0-.643,2.486c0,.514-.686.814-2.615,1.2a16.439,16.439,0,0,0-5.058,2.015,10.517,10.517,0,0,1-2.529,1.329A6.063,6.063,0,0,1-734.519,181.037Zm-3.343,16.159c-.643,0-.514-3.858.257-6.472a14.435,14.435,0,0,1,3.686-6.044c1.029-1.029,1.629-.986,1.672.171a9.113,9.113,0,0,0,.557,2.486c.514,1.457.514,1.5-1.2,2.915-1.757,1.457-4.543,5.358-4.543,6.387C-737.433,196.939-737.6,197.2-737.862,197.2Zm5.7,4.629a21.019,21.019,0,0,0-.943,5.444l-.257,3.858-1.157-1.972a14.005,14.005,0,0,1-1.243-11.616l.429-1.114,1.929,1.886,1.929,1.929Zm1.372,2.015a9.064,9.064,0,0,1,.857-2.357c.129,0,1.372.343,2.829.729,2.015.557,2.486.857,2.315,1.372a18.094,18.094,0,0,0-.686,2.7c-.257,1.157-.6,2.057-.772,2.057a17.289,17.289,0,0,1-4.972-1.715A6.227,6.227,0,0,1-730.789,203.84Zm8.273,16.459c-.729.257-4.886-2.915-6.087-4.586-1.372-2.015-2.4-4.5-2.4-5.829,0-.986.043-.986,1.629-.429a13.181,13.181,0,0,0,2.443.6c.729,0,.943.472,1.372,2.615a16.436,16.436,0,0,0,2.015,5.058C-722.731,219.057-722.26,220.214-722.517,220.3Zm.9-4.672c-1.114,0-1.286-.214-1.886-2.357-.814-2.658-.643-3.215.986-3.258a5.81,5.81,0,0,0,2.015-.386c1.543-.643,1.8-.472,2.529,2.186a19.112,19.112,0,0,1,.6,2.743A12.806,12.806,0,0,1-721.617,215.627Zm5.572,6.472c-2.143-.986-5.1-3.515-5.1-4.286,0-.257.429-.472.986-.514a9.207,9.207,0,0,0,2.443-.557c1.457-.557,1.5-.514,2.7,1.072s5.529,4.672,6.6,4.672a.527.527,0,0,1,.557.471C-707.858,223.814-713.816,223.171-716.044,222.1Zm20.146-2.529a18.77,18.77,0,0,1-3.986,1.672c-2.186.557-6.472.343-7.887-.429-.814-.429-.772-.557.9-2.315.986-1.072,1.843-1.929,1.843-1.972.043,0,.814.3,1.715.686a22.589,22.589,0,0,0,5.529.943l3.858.257Zm5.829-5.486c-1.886,1.286-5.7,2.657-6.087,2.229a6.771,6.771,0,0,1,.514-1.972,11.771,11.771,0,0,0,.643-2.615c0-.6.3-.814,1.286-.814,1.629,0,5.358-1.415,7.287-2.743.814-.557,1.586-.814,1.672-.6C-684.454,208.426-687.884,212.627-690.07,214.084Zm6.987-12.988c-1.072,2.229-3.343,5.1-4.072,5.1-.214,0-.643-1.114-1.029-2.529l-.643-2.486,1.5-1.029c1.5-1.029,4.758-5.615,4.758-6.687a.527.527,0,0,1,.471-.557C-681.2,192.91-681.883,198.525-683.083,201.1Z" transform="translate(740.009 -165.086)" fill="#6fa8dd"/>
      </g>
      <g id="Group_14474" data-name="Group 14474" transform="translate(21.094 21.094)">
        <circle id="Ellipse_17" data-name="Ellipse 17" cx="8.882" cy="8.882" r="8.882" transform="translate(0 0)" fill="#063762"/>
        <path id="Path_874" data-name="Path 874" d="M-2940.759,1489.629c.465.212-.088,1.5.88,1.672s5.192-.968,5.1,3.344a23.279,23.279,0,0,1-.792,6.372l-.28-4.126s-5.568.921-5.688-1.883S-2941.224,1489.417-2940.759,1489.629Z" transform="translate(2947.046 -1486.058)" fill="#6fa8dd"/>
      </g>
    </g>
  </g>
</svg>
