<svg xmlns="http://www.w3.org/2000/svg" width="310.488" height="90" viewBox="0 0 310.488 90">
  <g id="Group_14479" data-name="Group 14479" transform="translate(-120.36 -216.54)">
    <g id="Group_31" data-name="Group 31" transform="translate(219.377 233.676)">
      <rect id="Rectangle_243" data-name="Rectangle 243" width="12.859" height="11.573" transform="translate(198.26)"/>
      <path id="Path_54" data-name="Path 54" d="M-492.775,362v39.548h-13.183l-.11-14.446-.165-14.391-2.856-.165-2.911-.165V362Z" transform="translate(704.247 -346.413)"/>
      <path id="Path_55" data-name="Path 55" d="M-557.121,389.269l-6.976-.165-4.449-8.129-4.5-8.074h-5.767v16.478H-592V335h13.183v28.068l6.262-.33,4.339-7.305,4.394-7.25h6.811c6.1,0,6.811.11,6.536.879-.165.494-2.582,4.669-5.273,9.283s-5.053,8.788-5.273,9.228c-.165.494,1.922,4.834,4.943,10.381,2.856,5.273,5.383,10,5.6,10.491C-550.145,389.324-550.694,389.378-557.121,389.269Z" transform="translate(740.305 -334.243)"/>
      <path id="Path_56" data-name="Path 56" d="M-639.8,383.168v16.643h-13.183V385.365c0-17.522.385-16.643-6.7-16.149a33.258,33.258,0,0,0-6.317.934l-1.813.659v29H-681v-41.2h11.48l.385,1.977c.22,1.154.6,1.813.989,1.648a62.788,62.788,0,0,1,9.832-3.625c3.79-.714,8.9-.6,11.425.275a9.677,9.677,0,0,1,6.042,5.493C-639.914,366.36-639.8,368.228-639.8,383.168Z" transform="translate(780.419 -344.676)"/>
      <path id="Path_57" data-name="Path 57" d="M-728.941,365.17a10.956,10.956,0,0,0-6.427-6.262,21.669,21.669,0,0,0-6.372-.714c-5.6.11-16.753.769-20.323,1.208l-3.076.385v9.447l3.735-.384c2.032-.165,6.811-.494,10.711-.659,8.184-.439,9.173-.055,9.173,3.735v2.087h-8.9a73.494,73.494,0,0,0-11.15.6,11.3,11.3,0,0,0-6.811,6.811,29.339,29.339,0,0,0-.055,11.37,10.6,10.6,0,0,0,5.767,6.536c4.614,2.142,14.5.989,19.829-2.307,2.142-1.318,2.417-1.318,2.417,0,0,2.636.33,2.8,6.372,2.8h5.713V383.406C-728.337,372.7-728.556,366.378-728.941,365.17Zm-12.688,20.763-.165,2.636-3.021.659c-5,1.044-8.624.879-9.887-.385a3.8,3.8,0,0,1-1.1-2.2,3.8,3.8,0,0,1,1.1-2.2c.989-.989,1.813-1.1,7.2-1.1h6.042Z" transform="translate(820.066 -344.694)"/>
      <path id="Path_58" data-name="Path 58" d="M-808.171,335.581c0,.33-4.449,9.228-9.887,19.774l-9.887,19.17v14.831h-13.732V375.514l-10.162-19.719C-857.441,344.919-862,335.8-862,335.526c0-.33,2.692-.549,6.866-.549,6.481,0,6.866.055,7.58,1.208.439.714,3.351,6.646,6.482,13.183,3.131,6.591,5.823,11.919,5.987,11.974.165,0,2.966-5.658,6.262-12.524s6.262-12.8,6.536-13.183C-821.573,334.757-808.171,334.7-808.171,335.581Z" transform="translate(862 -334.22)"/>
    </g>
    <g id="Group_14475" data-name="Group 14475" transform="translate(120.36 216.54)">
      <g id="Group_14473" data-name="Group 14473">
        <path id="Path_53" data-name="Path 53" d="M-651.212,202.836a32.589,32.589,0,0,1-1.543-6.365c-.45-4.886-3.279-10.094-8.037-14.916-2.379-2.443-5.465-5.594-6.815-7.008a24.588,24.588,0,0,0-12.409-6.3,52.278,52.278,0,0,1-6.622-1.865c-4.5-1.672-11.38-1.736-15.5-.129a28.239,28.239,0,0,1-6.3,1.543,24.615,24.615,0,0,0-14.724,7.78c-2.122,2.122-5.208,5.208-6.879,6.815a22.794,22.794,0,0,0-6.558,12.023,38.431,38.431,0,0,1-1.864,6.429c-1.865,4.694-2.057,11.894-.514,15.945a30.262,30.262,0,0,1,1.543,6.108c.964,6.622,3.279,11.187,7.587,14.852a47.332,47.332,0,0,1,5.144,5.465,21.972,21.972,0,0,0,12.73,8.1,52.829,52.829,0,0,1,7.78,2.25c5.144,1.929,12.216,2.057,16.91.193a18.215,18.215,0,0,1,5.079-1.286c2.314,0,7.522-1.8,10.352-3.536a37.519,37.519,0,0,0,5.143-4.565,66.476,66.476,0,0,1,5.915-5.529c3.343-2.7,6.687-8.744,7.33-13.052a45.777,45.777,0,0,1,1.929-6.558A25.165,25.165,0,0,0-651.212,202.836Zm-10.223-4.179a19.235,19.235,0,0,0,1.029-8.037c-.129-2.508.064-4.308.386-4.179a16.522,16.522,0,0,1,2.572,4.051c1.672,3.279,1.929,4.436,1.929,8.937a26.8,26.8,0,0,1-.707,6.879l-.772,1.672-2.829-2.829-2.829-2.829Zm2.443,12.473c0,.771-4.694,5.336-5.465,5.272-.322,0-1.736-1.35-3.151-2.893l-2.443-2.765,2.764-2.829c2.572-2.572,2.958-2.765,4.179-1.993C-661.757,206.822-658.992,210.294-658.992,211.13Zm-20.446-4.5,2.314-2.829c2.058-2.443,2.572-2.765,4.308-2.443,2.572.514,5.465,1.672,5.465,2.186-.064.579-1.35,2.057-3.408,3.858l-1.736,1.543-3.472-1.157Zm2.122,4.051c-.579.964-5.851,1.35-7.651.579l-1.736-.836,1.479-.836C-683.36,208.494-676.545,209.394-677.316,210.68Zm1.865-15.045c-.9,2.572-1.093,2.7-4.244,3.022a18.277,18.277,0,0,1-3.472.257,23.729,23.729,0,0,1,.578-3.536c.707-3.279.836-3.408,3.665-4.308a24.1,24.1,0,0,1,4.05-.9C-673.587,190.106-673.651,190.62-675.451,195.635Zm-5.079,6.108c1.029,0,.836.386-1.221,2.186-2.315,2.057-5.529,3.022-5.529,1.736,0-.836,2.057-2.572,3.858-3.279A10.773,10.773,0,0,1-680.531,201.743Zm-8.423.193c-1.479,1.029-1.543,1.029-1.543-.707,0-1.157.836-2.7,2.315-4.308,1.221-1.35,2.443-2.315,2.636-2.057C-684.838,195.571-687.346,200.971-688.953,201.936Zm1.286-9.387c-1.929,1.479-2.958,1.865-3.086,1.286-2.058-6.365-1.929-6.88,1.672-9.773l2.122-1.607.707,1.414a15.9,15.9,0,0,1,1.093,3.986C-684.774,190.3-684.9,190.491-687.667,192.549Zm-3.922-9.9-2.765,2.443-3.022-2.958-2.957-2.958,2.764-2.572c1.543-1.414,3.086-2.572,3.536-2.572.965,0,5.658,4.886,5.4,5.594A22.2,22.2,0,0,1-691.589,182.647Zm-3.022,19.1-.836-1.479c-.964-1.8-1.028-2.765-.129-5.851.322-1.35.9-2.25,1.157-2.057,1.029.579,1.415,5.851.643,7.651Zm-.964,25.975c-.964-.579-1.35-6.044-.578-7.78l.771-1.607.9,1.672C-693.454,222-694.354,228.489-695.576,227.718Zm-2.958-42.756,2.443,2.508-1.157,3.536-1.222,3.536-2.572-2.122c-2.25-1.865-2.636-2.508-2.443-4.372a15.774,15.774,0,0,1,.836-3.922c.386-.964.9-1.736,1.157-1.736A14.713,14.713,0,0,1-698.533,184.962Zm-2.057,16.845c-.964-.643-2.765-4.822-2.765-6.365.064-1.8,4.5,3.536,4.5,5.4C-698.855,202.386-699.3,202.643-700.591,201.807Zm1.093,17.1c0,1.8-3.986,7.265-4.758,6.494-.643-.643,1.157-5.144,2.7-6.687C-699.562,216.724-699.5,216.724-699.5,218.91Zm-3.536-14.916c.964,1.479.964,1.543-.771,1.543-1.8,0-6.622-3.343-6.622-4.565C-710.428,199.428-704.448,201.871-703.034,203.993Zm-.257,5.658-1.479.836c-1.8.964-2.765,1.029-5.915.129-2.829-.772-2.443-1.672.9-2.057,1.222-.129,2.443-.321,2.7-.321a5.067,5.067,0,0,1,2.122.643Zm-11.316-18.131c-.386-1.865-.257-2.057,1.029-2.057a14.936,14.936,0,0,1,4.179,1.029c2.572.964,2.7,1.157,3.022,4.308a14.014,14.014,0,0,1,.129,3.536,22.139,22.139,0,0,1-3.407-.579C-713.128,196.921-713.707,196.214-714.607,191.52Zm9.13-7.394c-.707,2.057-1.415,3.793-1.479,3.922a51.281,51.281,0,0,1-7.844-2.122c-.386-.321,1.222-5.722,1.929-6.622.9-1.029,3.922-.964,6.558.129l2.186.9Zm-7.008,18.517,2.122,2.893-1.479.579c-4.629,1.736-5.529,1.607-8.358-1.222-3.086-3.022-2.829-3.472,2.25-4.436,1.479-.321,2.829-.579,3.022-.643A14.612,14.612,0,0,1-712.485,202.643Zm-7.651-4.565a28.647,28.647,0,0,1-4.115.9c-.578-.707-1.607-4.886-1.607-6.365,0-1.607.386-1.929,3.086-2.765,4.115-1.286,4.887-1.093,5.337,1.543.193,1.222.579,3.022.836,3.922C-716.15,196.856-716.343,196.985-720.136,198.078Zm-5.4,5.594c.322,0,1.8,1.35,3.15,2.893l2.507,2.829-2.958,2.893-2.893,2.893-1.865-1.543a13.922,13.922,0,0,1-2.765-3.215c-.836-1.607-.772-1.8,1.607-4.243C-727.337,204.765-725.923,203.607-725.537,203.672Zm5.208,10.159c1.35-1.35,2.765-2.507,3.15-2.507a20.13,20.13,0,0,1,3.6,1.157l3.022,1.093L-713,216.4l-2.443,2.829-3.279-.836c-1.8-.386-3.472-1.029-3.665-1.414C-722.644,216.659-721.679,215.245-720.329,213.83Zm4.822,13.5c.964-4.243,2.122-5.594,4.886-5.915,1.35-.129,2.829-.257,3.344-.321.579-.129.707.321.45,1.543-.257.964-.578,2.507-.836,3.472-.385,1.993-2.057,2.957-5.979,3.6l-2.443.386Zm4.693-8.487c-.193-.129.9-1.35,2.379-2.636,1.736-1.479,3.408-2.315,4.565-2.315,1.8,0,1.8,0,.772,1.543C-704.062,216.916-710.106,219.617-710.813,218.845Zm8.294,8.808c1.479-1.093,2.893-1.8,3.086-1.607a15.741,15.741,0,0,1,1.157,3.086c.9,3.215.45,4.372-2.636,6.944l-2.057,1.736-.707-1.543a13.9,13.9,0,0,1-1.157-4.051C-705.155,229.775-705.027,229.518-702.519,227.654Zm3.858,10.094a32.306,32.306,0,0,1,2.893-2.636,36.1,36.1,0,0,1,3.086,2.829l2.829,2.829-1.543,1.865a13.916,13.916,0,0,1-3.215,2.765c-1.607.836-1.8.772-4.243-1.607a12.759,12.759,0,0,1-2.572-3.022A13.848,13.848,0,0,1-698.662,237.748Zm7.265-2.508c-2.508-2.508-2.508-2.765-.964-7.265l.836-2.379,2.765,2.379c2.507,2.057,2.765,2.507,2.379,4.5-.514,2.958-1.415,5.208-2.122,5.208A10.585,10.585,0,0,1-691.4,235.24Zm.257-15.945c0-1.993.836-1.993,2.508.129,1.157,1.479,2.893,6.044,2.443,6.429C-686.96,226.625-691.139,221.1-691.139,219.3Zm4.244-3.215c-1.029-1.479-1.029-1.543.707-1.543s7.137,4.243,6.365,5.015C-680.531,220.2-685.932,217.624-686.9,216.081Zm2.443,19.738c1.157-3.408,1.543-3.922,2.636-3.6.707.257,2.508.771,4.051,1.157,2.636.643,2.764.772,2.315,2.636a19.726,19.726,0,0,1-1.286,4.051c-.772,1.929-1.029,2.057-2.958,1.736a30.26,30.26,0,0,1-4.115-1.222l-2.057-.836Zm3.793-6.237c-2.443-.9-2.765-1.222-2.765-3.022a14.869,14.869,0,0,0-.45-3.6c-.321-1.286-.193-1.479.708-1.157a20.121,20.121,0,0,0,3.6.836c2.7.45,3.407,1.543,4.243,6.3C-674.873,231.7-674.744,231.7-680.659,229.582Zm3.6-11.637c-2.443-3.472-2.443-3.536.386-4.436,3.858-1.157,4.115-1.093,6.944,1.736l2.636,2.636-1.543.836a16.146,16.146,0,0,1-4.179,1.222C-675.258,220.324-675.451,220.2-677.059,217.945Zm6.622,4.179c4.822-1.414,4.758-1.414,5.529,1.35,1.607,5.336.9,6.43-5.079,7.458l-2.314.45-.386-2.829c-.193-1.479-.578-3.343-.771-4.115C-673.844,223.282-673.458,222.96-670.437,222.124Zm7.137-27.261a23.294,23.294,0,0,1-1.157,3.986l-.836,1.993-3.986-1.286c-3.472-1.157-3.922-1.479-3.536-2.636.257-.772.771-2.572,1.093-4.051.643-2.507.9-2.7,2.379-2.379a24.766,24.766,0,0,1,4.051,1.35C-663.107,192.742-662.978,193-663.3,194.863Zm-8.873-20.51c4.693,3.15,8.68,9.258,8.68,13.373v1.543l-3.793-1.029-3.793-.964-.386-3.022c-.386-2.893-2.057-6.751-4.5-10.416C-677.573,171.46-676.352,171.589-672.172,174.353Zm-2.572,8.165c1.35,4.629,1.286,4.822-1.736,5.272a27.971,27.971,0,0,0-4.115.772c-1.157.321-1.414-.129-2.443-3.665a28.659,28.659,0,0,1-.9-4.115,11.707,11.707,0,0,1,2.443-.836,16.323,16.323,0,0,1,3.986-.707C-675.966,179.175-675.645,179.5-674.744,182.519Zm-19.1-14.788c5.079.386,10.287,2.508,13.5,5.658,2.315,2.25,2.572,3.215.964,3.215a19.506,19.506,0,0,0-3.665.964c-2.443.836-2.507.836-4.179-1.157-2.829-3.343-4.758-4.951-7.908-6.429-1.672-.772-3.022-1.672-3.086-1.993C-698.212,167.667-696.219,167.6-693.839,167.731Zm-17.36,3.408c3.279-1.029,9.516-.9,12.473.193l1.672.707-2.829,2.829-2.829,2.829-3.665-1.222a22.105,22.105,0,0,0-8.1-1.029c-2.379.129-4.308,0-4.308-.257C-718.786,174.546-714.478,172.167-711.2,171.139Zm-20.574,17.874a23.91,23.91,0,0,1,9.773-9.13,15.38,15.38,0,0,1,4.629-1.35h1.736l-.9,2.636a17.513,17.513,0,0,0-.964,3.729c0,.772-1.029,1.222-3.922,1.8a24.66,24.66,0,0,0-7.587,3.022,15.776,15.776,0,0,1-3.793,1.993A9.1,9.1,0,0,1-731.774,189.013Zm-5.015,24.239c-.964,0-.771-5.787.386-9.708a21.65,21.65,0,0,1,5.529-9.066c1.543-1.543,2.443-1.479,2.507.257a13.673,13.673,0,0,0,.836,3.729c.772,2.186.772,2.25-1.8,4.372-2.636,2.186-6.815,8.037-6.815,9.58C-736.146,212.866-736.4,213.252-736.789,213.252Zm8.551,6.944a31.533,31.533,0,0,0-1.415,8.165l-.386,5.787-1.736-2.958c-3.15-5.336-3.857-12.216-1.864-17.424l.643-1.672,2.893,2.829,2.893,2.893Zm2.058,3.022a13.609,13.609,0,0,1,1.286-3.536c.193,0,2.057.514,4.243,1.093,3.022.836,3.729,1.286,3.472,2.057a27.164,27.164,0,0,0-1.028,4.051c-.386,1.736-.9,3.086-1.157,3.086-1.286,0-7.137-2.057-7.458-2.572C-727.08,227.011-726.759,225.146-726.18,223.217Zm12.409,24.689c-1.093.386-7.33-4.372-9.13-6.879-2.057-3.022-3.6-6.751-3.6-8.744,0-1.479.064-1.479,2.443-.643a19.77,19.77,0,0,0,3.665.9c1.093,0,1.414.707,2.057,3.922a24.664,24.664,0,0,0,3.022,7.587C-714.092,246.042-713.385,247.778-713.771,247.906Zm1.35-7.008c-1.672,0-1.929-.321-2.829-3.536-1.222-3.986-.965-4.822,1.479-4.886a8.714,8.714,0,0,0,3.022-.579c2.315-.964,2.7-.707,3.793,3.279a28.688,28.688,0,0,1,.9,4.115C-706.763,239.87-710.942,240.9-712.421,240.9Zm8.358,9.708c-3.215-1.479-7.651-5.272-7.651-6.43,0-.386.643-.707,1.479-.772a13.811,13.811,0,0,0,3.665-.836c2.186-.836,2.25-.772,4.051,1.607s8.294,7.008,9.9,7.008a.79.79,0,0,1,.836.707C-691.782,253.178-700.719,252.214-704.062,250.607Zm30.218-3.793a28.156,28.156,0,0,1-5.979,2.507c-3.279.836-9.708.514-11.83-.643-1.221-.643-1.157-.836,1.35-3.472,1.479-1.607,2.765-2.893,2.765-2.958.064,0,1.221.45,2.572,1.029a33.883,33.883,0,0,0,8.294,1.415l5.786.386Zm8.744-8.23c-2.829,1.929-8.551,3.986-9.13,3.343a10.153,10.153,0,0,1,.772-2.958,17.656,17.656,0,0,0,.964-3.922c0-.9.45-1.222,1.929-1.222,2.443,0,8.037-2.122,10.93-4.115,1.221-.836,2.379-1.222,2.507-.9C-656.677,230.1-661.821,236.4-665.1,238.584Zm10.48-19.481c-1.607,3.343-5.015,7.651-6.108,7.651-.321,0-.964-1.672-1.543-3.793l-.964-3.729,2.25-1.543c2.25-1.543,7.137-8.423,7.137-10.03a.79.79,0,0,1,.707-.836C-651.791,206.822-652.82,215.245-654.62,219.1Z" transform="translate(740.009 -165.086)"/>
      </g>
      <g id="Group_14474" data-name="Group 14474" transform="translate(31.64 31.64)">
        <circle id="Ellipse_17" data-name="Ellipse 17" cx="13.322" cy="13.322" r="13.322" fill="#fafafa"/>
        <path id="Path_874" data-name="Path 874" d="M-2940.36,1489.635c.7.318-.132,2.244,1.32,2.508s7.789-1.452,7.657,5.017-1.189,9.558-1.189,9.558l-.42-6.189s-8.353,1.382-8.533-2.824S-2941.058,1489.316-2940.36,1489.635Z" transform="translate(2949.791 -1484.279)"/>
      </g>
    </g>
  </g>
</svg>
