<svg xmlns="http://www.w3.org/2000/svg" width="185.033" height="201.58" viewBox="0 0 185.033 201.58">
  <g id="Group_14511" data-name="Group 14511" transform="translate(-963.9 -389.086)">
    <path id="Path_891" data-name="Path 891" d="M1126.577,586.194H981.561V463.521l72.5-46.038,72.519,46.038Z" transform="translate(2.781 4.472)" fill="#ffc800"/>
    <path id="Path_892" data-name="Path 892" d="M1126.577,586.194H981.561V463.521l72.5-46.038,72.519,46.038Z" transform="translate(2.781 4.472)" fill="#003e74"/>
    <g id="Group_14500" data-name="Group 14500" transform="translate(992.52 416.12)">
      <rect id="Rectangle_727" data-name="Rectangle 727" width="128.66" height="165.16" fill="#fff" stroke="#e7e7e7" stroke-width="1"/>
      <path id="Path_893" data-name="Path 893" d="M1041.956,496.184l-23.973-24.267,8.054-7.957,14,14.174,29.094-45.611,9.546,6.088Z" transform="translate(-984.002 -409.279)" fill="#76dd33"/>
    </g>
    <path id="Path_894" data-name="Path 894" d="M1126.577,483.785v91.966H981.561V483.785c6.227,3.528,12.347,7.23,18.511,10.846,6.141,3.68,12.282,7.361,18.38,11.106q10.192,6.207,20.361,12.588c.066-.044.153-.088.218-.131-.065.043-.108.109-.174.153q7.612,4.735,15.222,9.516c5.052-3.178,10.127-6.38,15.2-9.516-.066-.044-.109-.11-.175-.153a1.1,1.1,0,0,0,.218.109q10.161-6.337,20.363-12.588,9.146-5.585,18.358-11.084C1114.23,491.015,1120.349,487.313,1126.577,483.785Z" transform="translate(2.781 14.914)" fill="#13538b"/>
    <g id="Group_14501" data-name="Group 14501" transform="translate(984.342 498.7)" opacity="0.2">
      <path id="Path_895" data-name="Path 895" d="M1126.577,483.785c-5.858,4.116-11.825,8.057-17.726,12.109q-8.919,5.945-17.9,11.847-9.376,6.141-18.794,12.173c-.2.131-.37.262-.566.392q-8.33,5.323-16.7,10.649l-.826.5-.807-.5q-8.362-5.325-16.681-10.671c-.2-.109-.393-.24-.588-.37q-9.442-6.044-18.816-12.2c-5.967-3.9-11.934-7.862-17.88-11.825-5.9-4.051-11.868-7.992-17.726-12.109,6.227,3.528,12.347,7.23,18.511,10.846,6.141,3.68,12.282,7.361,18.38,11.106q10.192,6.207,20.361,12.588c.022,0,.022,0,.044.022q7.612,4.735,15.222,9.516c5.052-3.178,10.127-6.38,15.2-9.516.022-.044.022-.044.043-.044q10.161-6.337,20.363-12.588,9.146-5.585,18.358-11.084C1114.23,491.015,1120.349,487.313,1126.577,483.785Z" transform="translate(-981.561 -483.785)"/>
      <path id="Path_896" data-name="Path 896" d="M1038.983,513.512c-.065.043-.108.109-.174.153-.762.653-1.524,1.306-2.286,1.938-3.637,3.071-7.362,6.011-11.15,8.864-4.617,3.527-9.343,6.9-14.09,10.256-4.77,3.288-9.561,6.555-14.461,9.691s-9.843,6.208-14.961,9.016c4.4-3.854,8.972-7.447,13.589-10.953,4.638-3.528,9.364-6.9,14.09-10.258,4.791-3.31,9.582-6.577,14.481-9.713,3.9-2.5,7.862-4.966,11.913-7.274.936-.544,1.873-1.067,2.83-1.589C1038.832,513.6,1038.918,513.555,1038.983,513.512Z" transform="translate(-981.514 -479.103)"/>
      <path id="Path_897" data-name="Path 897" d="M1114.316,553.429c-5.117-2.808-10.083-5.879-14.961-9.016-4.9-3.136-9.692-6.4-14.483-9.691-4.747-3.353-9.473-6.73-14.089-10.256-3.768-2.853-7.492-5.771-11.107-8.842-.784-.654-1.546-1.307-2.308-1.96-.066-.044-.109-.11-.175-.153a1.1,1.1,0,0,0,.218.109c.958.544,1.895,1.067,2.831,1.611,4.051,2.308,7.993,4.77,11.913,7.274,4.9,3.136,9.69,6.4,14.459,9.713,4.748,3.354,9.474,6.73,14.091,10.258C1105.345,545.982,1109.918,549.575,1114.316,553.429Z" transform="translate(-969.649 -479.103)"/>
    </g>
    <g id="Group_14510" data-name="Group 14510" transform="translate(963.901 389.086)">
      <g id="Group_14502" data-name="Group 14502" transform="translate(30.886)">
        <line id="Line_4" data-name="Line 4" x1="0.02" y1="19.159" fill="none" stroke="#0270d1" stroke-width="1"/>
      </g>
      <g id="Group_14503" data-name="Group 14503" transform="translate(9.204 8.666)">
        <line id="Line_5" data-name="Line 5" x1="13.561" y1="13.534" fill="none" stroke="#0270d1" stroke-width="1"/>
      </g>
      <g id="Group_14504" data-name="Group 14504" transform="translate(0 30.106)">
        <line id="Line_6" data-name="Line 6" x1="19.159" y2="0.02" fill="none" stroke="#0270d1" stroke-width="1"/>
      </g>
      <g id="Group_14505" data-name="Group 14505" transform="translate(8.666 38.247)">
        <line id="Line_7" data-name="Line 7" x1="13.533" y2="13.561" fill="none" stroke="#0270d1" stroke-width="1"/>
      </g>
      <g id="Group_14506" data-name="Group 14506" transform="translate(154.127)">
        <line id="Line_8" data-name="Line 8" y1="19.159" x2="0.02" fill="none" stroke="#0270d1" stroke-width="1"/>
      </g>
      <g id="Group_14507" data-name="Group 14507" transform="translate(162.267 8.666)">
        <line id="Line_9" data-name="Line 9" y1="13.534" x2="13.561" fill="none" stroke="#0270d1" stroke-width="1"/>
      </g>
      <g id="Group_14508" data-name="Group 14508" transform="translate(165.873 30.106)">
        <line id="Line_10" data-name="Line 10" x2="19.159" y2="0.02" fill="none" stroke="#0270d1" stroke-width="1"/>
      </g>
      <g id="Group_14509" data-name="Group 14509" transform="translate(162.833 38.247)">
        <line id="Line_11" data-name="Line 11" x2="13.534" y2="13.561" fill="none" stroke="#0270d1" stroke-width="1"/>
      </g>
    </g>
  </g>
</svg>
